<svg version="1.1" id="Layer_1" xmlns="http://www.w3.org/2000/svg" xmlns:xlink="http://www.w3.org/1999/xlink" x="0px" y="0px"
	 width="100%" viewBox="0 0 768 768" enable-background="new 0 0 768 768" xml:space="preserve">
<path fill="#000000" opacity="1.000000" stroke="none" 
	d="
M768.607056,413.779144 
	C769.000000,530.779419 768.969299,647.558838 769.123291,764.338013 
	C769.128845,768.574951 768.039429,769.101135 764.166138,769.098938 
	C568.423218,768.986328 372.680267,769.000000 176.468658,769.000000 
	C174.512451,766.519531 176.188217,765.079102 177.997253,764.263367 
	C189.814316,758.934387 201.517883,753.336792 214.007660,748.601562 
	C222.492233,744.500549 230.634842,740.565735 239.556549,737.444397 
	C248.265945,732.993286 256.308716,727.710144 266.829163,729.060791 
	C269.751923,728.782227 272.203644,729.023071 274.649078,729.701843 
	C283.468292,732.149475 292.513184,733.693970 301.704590,736.368164 
	C310.782715,737.335205 319.292511,739.174744 328.287689,740.709839 
	C339.292847,741.731262 349.895203,742.456482 360.870026,743.963989 
	C367.751740,743.591125 374.181274,743.385864 381.054840,744.091187 
	C386.786438,744.142761 392.062775,743.248535 397.795898,744.000732 
	C404.749573,743.526367 411.296295,743.758545 418.233948,743.019043 
	C427.051880,742.336365 435.354584,740.950684 444.166199,740.302856 
	C452.863403,738.868347 461.085907,737.176147 469.805664,735.994385 
	C476.320953,733.968323 482.659027,732.963013 489.278931,731.448547 
	C495.364258,729.754517 500.902954,727.539246 507.176208,726.566406 
	C512.826172,724.111328 518.450928,722.722290 524.194946,720.577698 
	C532.237366,718.155273 539.353455,714.325073 547.362488,711.832031 
	C547.915222,711.610291 548.130066,711.507507 548.657104,711.231140 
	C549.347351,710.765991 549.728088,710.477844 550.435181,710.040100 
	C557.522400,707.064026 564.062500,703.747803 571.106323,700.687927 
	C579.704712,695.556519 587.958130,690.525818 596.913391,686.022095 
	C600.843384,682.925171 604.739319,680.391785 608.928345,677.677124 
	C616.319092,672.360535 623.581848,667.447632 630.431335,661.973572 
	C631.339783,661.247498 632.140686,660.381714 633.598633,659.858276 
	C636.968079,656.613281 640.314636,653.843140 643.883667,650.812622 
	C648.972107,647.364075 652.041992,642.150513 657.396851,639.012207 
	C659.518738,637.503784 660.652283,635.502686 662.578369,633.795044 
	C666.895142,631.627991 667.617981,626.553650 671.700867,624.169678 
	C674.890320,621.503357 676.379211,617.797180 679.631714,615.188477 
	C682.780701,612.528809 684.164490,608.791992 687.360901,606.174011 
	C689.298767,602.728943 691.831543,600.178406 694.399292,597.224365 
	C696.700012,593.700989 698.755005,590.418518 701.514282,587.221436 
	C704.414612,584.369324 705.078918,580.510925 707.716309,577.478149 
	C708.129456,576.790039 708.386658,576.411499 708.905518,575.800781 
	C709.300415,575.394836 709.470459,575.246399 709.877075,574.858154 
	C712.747375,569.907532 715.299133,565.147522 718.627808,560.450256 
	C721.324585,554.061890 725.371460,548.771851 728.148621,542.405029 
	C731.943848,536.069397 733.657349,529.135437 737.538879,522.834229 
	C740.812073,514.094666 744.045410,505.733521 747.202271,496.947083 
	C749.075806,491.881836 749.984985,486.887268 752.266602,481.944183 
	C753.414917,477.860260 753.775513,473.980713 755.234558,469.966522 
	C756.778931,464.229462 757.603394,458.713226 759.436157,453.020416 
	C760.429016,445.472565 761.889160,438.409180 763.201050,430.883240 
	C763.938538,426.382599 764.031067,422.240509 764.757690,418.168854 
	C765.141907,416.015747 765.277161,413.760742 768.607056,413.779144 
z"/>
<path fill="#000000" opacity="1.000000" stroke="none" 
	d="
M426.779419,1.389993 
	C539.593506,1.000000 652.187012,1.023252 764.780396,0.896705 
	C768.461060,0.892568 769.094971,1.746395 769.091309,5.275079 
	C768.979614,114.204193 769.000000,223.133453 769.000000,332.531342 
	C765.866150,334.198151 765.285645,331.897980 764.951111,329.792725 
	C764.516479,327.057648 764.032043,324.324310 763.707214,321.127502 
	C764.624023,316.238342 762.171997,312.349915 761.533752,308.150391 
	C759.923218,297.553162 757.887207,287.012543 754.838745,276.286591 
	C754.166077,268.740570 750.438110,262.523529 748.757874,255.670547 
	C747.234863,249.459015 744.977234,243.406799 742.338867,237.127777 
	C741.292603,230.914703 737.540344,226.256470 735.472778,220.857635 
	C733.112427,214.694199 730.351929,208.625687 727.057739,202.432449 
	C722.956665,193.455139 717.739441,185.529617 712.769592,177.495987 
	C699.438049,155.945938 683.913818,136.124481 666.294800,117.823174 
	C639.651428,90.147949 609.347595,67.547874 575.599243,49.330105 
	C537.304260,28.658054 496.490540,15.614021 453.753510,8.157207 
	C449.372437,7.392795 445.130585,5.754492 440.160461,6.269673 
	C436.649139,6.240603 433.642700,5.433832 430.568542,5.132362 
	C428.526215,4.932076 426.684601,4.342618 426.779419,1.389993 
z"/>
<path fill="#000000" opacity="1.000000" stroke="none" 
	d="
M1.415085,333.218750 
	C1.000000,223.737640 1.024391,114.475266 0.895265,5.213066 
	C0.890894,1.514355 1.770792,0.906768 5.281627,0.910182 
	C117.541908,1.019369 229.802307,1.000000 342.531342,1.000000 
	C344.112549,4.528543 341.538666,4.873184 339.230438,5.143480 
	C328.536926,6.395697 317.945953,8.382873 307.241913,9.547948 
	C306.575165,9.620521 305.939850,9.773940 304.965088,10.275021 
	C298.675415,11.599014 292.847168,13.171503 286.876495,13.972955 
	C285.219421,14.195386 283.682770,14.550414 281.889832,15.560555 
	C272.414948,18.041943 263.309082,20.396444 253.976532,23.331030 
	C245.764267,26.316875 238.032822,29.517679 230.086288,32.129185 
	C229.013962,32.481586 227.781769,32.514301 226.809784,33.877594 
	C220.904221,36.023666 215.868042,39.435719 209.945602,40.563786 
	C208.908157,40.761391 208.200119,41.459290 207.214020,42.403336 
	C200.694458,45.679085 194.655640,49.116615 188.064728,52.230392 
	C181.674377,56.806107 174.982315,60.183830 168.254257,64.162323 
	C162.765808,68.613831 156.987961,72.027969 151.118286,75.915375 
	C147.382080,79.428734 143.311707,81.910980 139.176865,84.863129 
	C135.595123,88.888618 131.139069,91.318184 127.171249,94.873795 
	C122.602715,98.865158 118.865753,103.261772 114.029381,106.971634 
	C108.491882,111.420876 104.489929,116.916824 99.321831,121.725708 
	C95.992859,126.159180 91.930588,129.473221 88.580788,133.865692 
	C86.363762,136.204346 85.098648,138.968643 82.394119,140.881134 
	C78.626945,146.962921 74.028831,152.004715 69.923943,157.813492 
	C67.463974,161.485291 65.278732,164.958862 62.456673,168.388123 
	C61.136677,171.414322 58.933281,173.476379 57.507626,176.417709 
	C56.121822,179.950241 53.529789,182.335693 51.900311,185.713943 
	C50.263222,189.104370 48.366261,191.963379 46.584705,195.273010 
	C45.547752,198.759781 43.023621,201.006210 41.614464,204.279663 
	C40.928761,207.411789 38.768673,209.428314 37.763191,212.397842 
	C36.580784,217.200348 33.767578,220.888245 32.024811,225.448853 
	C31.014523,228.275436 30.128166,230.772125 28.589233,233.371429 
	C27.193525,239.286896 24.754404,244.436279 22.618361,250.089996 
	C21.114828,256.431427 18.916605,262.159058 16.908009,268.351532 
	C15.102202,277.036072 12.957737,285.234039 10.583704,293.780579 
	C9.843751,300.395111 8.607141,306.508606 7.035847,312.978149 
	C7.030659,318.271698 6.078518,323.012451 4.984426,328.182068 
	C4.978903,330.920563 4.783905,333.081207 1.415085,333.218750 
z"/>
<path fill="#000000" opacity="1.000000" stroke="none" 
	d="
M153.232513,768.635376 
	C103.875786,769.000000 54.751255,768.924927 5.627906,769.130981 
	C1.319856,769.149048 0.901334,767.940247 0.905133,764.135437 
	C1.021352,647.736145 1.000000,531.336731 1.000000,414.468658 
	C3.732713,412.854736 4.614251,414.726990 4.962414,416.735504 
	C5.406352,419.296600 5.930153,421.874329 5.888313,424.943237 
	C7.568715,435.339020 9.625725,445.230011 11.065698,455.640961 
	C13.995063,465.164886 16.005064,474.511566 18.520992,484.124634 
	C21.679579,493.126984 24.834562,501.726257 27.502106,510.882507 
	C30.795105,517.580566 33.348057,524.195618 36.290943,531.034180 
	C39.239712,537.162842 42.016041,542.975342 45.136124,549.016479 
	C50.529655,558.923035 56.524433,568.062683 62.063576,577.878662 
	C67.247200,584.889160 71.898384,591.852295 77.139648,598.816528 
	C84.454918,608.143799 91.897423,616.913025 99.843140,625.710083 
	C108.154953,635.563049 118.451492,642.901550 127.009659,652.521484 
	C127.343025,653.034302 127.470581,653.245850 127.812515,653.765747 
	C128.350311,654.475220 128.672348,654.877441 129.229401,655.606873 
	C133.780838,663.205566 133.344559,671.386536 133.948837,679.792358 
	C134.026337,696.322266 135.571655,712.389587 135.284927,728.502930 
	C135.192810,733.679199 135.601181,738.797180 136.444778,743.880493 
	C137.843857,752.311035 143.018982,758.205322 149.643951,763.064209 
	C151.474518,764.406799 153.931839,765.255859 153.232513,768.635376 
z"/>
<path fill="#FF5A77" opacity="1.000000" stroke="none" 
	d="
M303.574768,8.536632 
	C313.935669,6.490844 324.324341,4.890332 334.678802,3.092482 
	C337.664154,2.574134 340.996887,4.284984 343.325012,1.355197 
	C347.024536,1.000000 351.049103,1.000000 355.536804,1.000000 
	C358.606140,3.660199 362.278870,2.798148 365.396667,3.801968 
	C399.344696,14.732005 432.610535,27.359652 465.012360,42.329247 
	C506.083801,61.304199 545.187744,83.677643 582.489136,109.216354 
	C604.191162,124.074829 624.844421,140.321381 645.006348,157.214386 
	C665.957703,174.768768 685.797729,193.504013 704.777893,213.134888 
	C720.965149,229.877014 736.341675,247.370010 751.003113,265.475250 
	C753.205872,268.195343 754.277344,271.630157 756.597412,274.722870 
	C760.763000,287.732025 762.684448,300.882263 765.002502,313.949524 
	C765.311646,315.692261 765.650757,317.429688 765.904846,319.583496 
	C762.512695,321.838318 761.009766,319.379181 759.441345,317.236908 
	C750.496582,305.019257 741.481262,292.848419 731.893066,281.130341 
	C719.675903,266.199158 707.286987,251.408279 693.835083,237.544708 
	C686.532715,230.018784 679.704407,222.045273 672.087952,214.809082 
	C640.691895,184.980545 607.926758,156.828598 572.223572,132.196045 
	C544.238464,112.888367 515.274292,95.259644 485.104675,79.553467 
	C454.779724,63.766411 423.429443,50.424778 391.338531,38.723564 
	C364.248779,28.845913 336.653534,20.694962 308.630371,13.941778 
	C306.093048,13.330316 303.281555,12.566479 303.574768,8.536632 
z"/>
<path fill="#8942FF" opacity="1.000000" stroke="none" 
	d="
M1.000000,333.468658 
	C2.955488,332.937164 2.955488,332.937164 3.092215,328.433716 
	C5.100688,325.339844 8.170435,324.798584 11.016520,324.046387 
	C35.981091,317.448456 61.302555,312.948517 87.035355,310.523682 
	C106.613350,308.678802 126.222191,308.071045 145.814056,308.820770 
	C179.626907,310.114624 212.996887,314.886627 245.723190,323.720673 
	C247.497711,324.199707 249.229630,324.763916 251.004852,326.209839 
	C253.084198,329.117920 252.300644,331.517181 250.776443,333.877533 
	C244.963531,342.879425 239.442307,352.065186 233.643723,361.076233 
	C232.281143,363.193695 230.856400,365.212646 227.612366,365.478638 
	C220.107925,365.716797 213.452240,363.298340 206.616547,362.044586 
	C186.631577,358.379181 166.541092,356.180420 146.222244,355.143127 
	C100.188988,352.793060 55.354706,359.123047 11.235536,371.842712 
	C8.204261,372.716644 5.030522,374.732666 1.335075,372.289978 
	C1.000000,359.312439 1.000000,346.624878 1.000000,333.468658 
z"/>
<path fill="#FA5087" opacity="1.000000" stroke="none" 
	d="
M225.519073,32.540535 
	C234.124619,28.072138 242.942245,24.500423 252.557343,21.938725 
	C264.129730,20.659634 274.733826,24.057079 285.412415,26.274807 
	C316.410553,32.712502 346.837585,41.293674 376.775757,51.621128 
	C417.497009,65.668312 456.561737,83.419334 494.347046,104.029282 
	C528.608826,122.717339 561.164246,144.048584 592.013672,167.943695 
	C605.948303,178.737137 619.461121,190.045975 632.632996,201.787781 
	C647.058533,214.647232 661.098083,227.889435 674.439087,241.847900 
	C691.794861,260.007019 708.381958,278.853790 723.923523,298.611206 
	C736.585693,314.708069 748.500793,331.336609 759.995239,348.278107 
	C763.266724,353.099884 766.465881,357.940887 768.750977,363.722809 
	C769.000000,373.020905 769.000000,382.041779 769.000000,391.531342 
	C765.340393,394.025116 763.862000,391.251862 762.390015,388.856201 
	C753.323059,374.099548 743.885376,359.579712 734.035034,345.341125 
	C718.973083,323.569336 702.668335,302.759186 685.230286,282.821655 
	C674.053650,270.042999 662.706238,257.410065 650.630493,245.504990 
	C628.707764,223.892258 605.696655,203.501129 581.332214,184.608490 
	C551.401733,161.399918 519.884644,140.642151 486.869720,122.174431 
	C462.734467,108.673775 437.801605,96.742828 412.221222,86.189690 
	C375.982758,71.239540 338.827789,59.091740 300.717834,49.934963 
	C278.391907,44.570656 255.880814,40.102440 233.113815,36.950199 
	C230.394424,36.573673 226.364517,37.378189 225.519073,32.540535 
z"/>
<path fill="#F14E92" opacity="1.000000" stroke="none" 
	d="
M186.962631,51.334663 
	C192.866821,47.431683 198.794281,43.831947 205.504028,40.972576 
	C213.037949,39.521606 220.091003,41.040531 227.120834,41.996254 
	C256.981110,46.055801 286.514526,51.825939 315.649139,59.553627 
	C353.688232,69.643158 390.699219,82.602692 426.677155,98.626404 
	C465.871338,116.082550 503.180664,136.865555 538.763550,160.767441 
	C562.257935,176.549179 584.609497,193.840652 606.102661,212.275955 
	C625.199097,228.655502 643.459167,245.914413 660.707581,264.186127 
	C684.587646,289.482880 706.676880,316.292328 726.689941,344.795593 
	C741.145447,365.383575 754.683167,386.532379 766.957031,408.489868 
	C767.367493,409.224213 767.890625,409.865173 768.736694,410.731873 
	C769.000000,411.750000 769.000000,412.500000 769.000000,413.625000 
	C765.717346,413.580902 767.114441,416.166901 767.076965,417.384796 
	C766.942444,421.759918 766.263489,426.010559 764.916016,430.590698 
	C760.910034,432.711487 759.816589,429.414978 758.577271,427.130951 
	C753.098938,417.034027 747.414856,407.053528 741.474365,397.229279 
	C722.758484,366.277344 701.698547,337.015289 678.641724,309.121704 
	C660.253906,286.876495 640.159241,266.283295 619.445740,246.297104 
	C596.913269,224.555786 572.503662,204.998947 547.153503,186.611420 
	C510.370026,159.930771 471.058807,137.574234 430.033508,118.194313 
	C411.670532,109.519821 392.842926,101.883217 373.751007,94.931023 
	C348.699402,85.808655 323.213959,78.104515 297.311279,71.803917 
	C269.323425,64.996132 241.002121,59.964539 212.420639,56.452690 
	C205.661438,55.622177 198.872009,54.976036 192.100433,54.206284 
	C190.081009,53.976730 188.061279,53.878326 186.962631,51.334663 
z"/>
<path fill="#FE5281" opacity="1.000000" stroke="none" 
	d="
M769.000000,363.531372 
	C766.446838,363.664124 765.606445,361.453613 764.484619,359.683990 
	C746.734985,331.685089 726.912476,305.238068 705.528992,279.910828 
	C688.988831,260.320160 671.655762,241.480103 653.161743,223.750076 
	C626.614502,198.299545 598.463684,174.737808 568.534485,153.321396 
	C529.693848,125.528183 488.462341,101.815529 445.200592,81.699371 
	C411.655060,66.101120 377.002411,53.339191 341.502747,42.818481 
	C312.583954,34.248093 283.157806,28.014505 253.265930,22.123314 
	C261.560852,18.172165 270.644318,16.017736 280.015656,13.555420 
	C303.673523,16.989170 326.405029,23.245951 349.033661,29.881113 
	C375.244446,37.566643 400.829590,47.023018 426.085175,57.412773 
	C445.650543,65.461693 464.801636,74.398018 483.532471,84.198219 
	C527.276245,107.085487 568.447266,133.915604 607.293823,164.436523 
	C637.605591,188.251907 665.511475,214.619247 691.967590,242.515366 
	C714.522827,266.298309 735.066162,291.832733 754.148254,318.507721 
	C759.073059,325.392212 764.072449,332.230682 768.740356,339.735260 
	C769.000000,347.687592 769.000000,355.375153 769.000000,363.531372 
z"/>
<path fill="#F44E8F" opacity="1.000000" stroke="none" 
	d="
M769.000000,410.531738 
	C766.019409,411.082611 764.668884,409.097717 763.371765,406.810059 
	C745.851135,375.911072 726.125122,346.475525 704.274780,318.480072 
	C691.898499,302.623047 678.789307,287.390625 665.215881,272.522339 
	C655.097900,261.439117 644.590332,250.758011 633.772095,240.414459 
	C606.934998,214.754837 578.341675,191.190643 547.887146,169.892838 
	C516.714111,148.092590 484.111572,128.717667 449.948822,112.025711 
	C409.009094,92.022545 366.583588,75.914085 322.602173,63.855927 
	C288.672638,54.553646 254.238937,47.924198 219.410126,43.243843 
	C215.122757,42.667698 210.806290,42.449451 206.262390,41.031723 
	C212.154678,37.994659 218.440506,35.040630 225.116211,32.125862 
	C230.032028,35.701920 235.659515,34.984039 240.778183,35.755131 
	C293.366150,43.677158 344.314026,57.664696 394.015533,76.431221 
	C422.104614,87.037247 449.394714,99.440285 475.870728,113.533554 
	C514.302307,133.990814 550.773743,157.551956 585.002747,184.510742 
	C603.561035,199.127228 621.238220,214.730179 638.603699,230.765594 
	C651.111633,242.315491 662.768982,254.629196 674.304749,267.036407 
	C694.127563,288.356598 712.487793,310.959167 729.400818,334.682892 
	C741.875061,352.180511 753.710693,370.110413 764.776184,388.539093 
	C765.653442,390.000214 766.571655,391.354401 768.662109,391.923462 
	C769.000000,398.021149 769.000000,404.042297 769.000000,410.531738 
z"/>
<path fill="#FF5F72" opacity="1.000000" stroke="none" 
	d="
M756.896729,274.614990 
	C752.464661,272.799469 750.392334,268.413635 747.521790,264.872284 
	C726.116577,238.465042 703.070068,213.558685 678.484985,190.128113 
	C658.385254,170.972229 637.154175,153.086090 615.193420,136.053452 
	C588.042664,114.995537 559.578918,95.912857 529.902161,78.660728 
	C500.944275,61.826500 471.044220,46.837963 440.146942,33.828922 
	C414.024231,22.830196 387.450256,13.133512 360.350189,4.856448 
	C358.564209,4.310965 356.836578,3.707267 356.085571,1.345589 
	C370.020905,1.000000 384.041779,1.000000 398.531342,1.000000 
	C411.195587,4.279210 422.949127,8.807415 434.614624,13.587993 
	C469.753021,27.987921 503.821014,44.533058 536.697144,63.590195 
	C565.663879,80.381142 593.463806,98.888458 620.144531,119.065857 
	C636.976318,131.794922 653.197083,145.288437 669.111328,159.175781 
	C687.948303,175.613586 705.329529,193.518753 722.815491,211.308914 
	C730.236755,218.859283 737.428406,226.760132 743.833252,235.728348 
	C749.940918,248.196518 752.620178,261.490570 756.896729,274.614990 
z"/>
<path fill="#774DFF" opacity="1.000000" stroke="none" 
	d="
M4.480362,426.304657 
	C2.123648,422.061951 4.323411,417.308960 1.377884,413.736877 
	C1.000000,408.311951 1.000000,402.623932 1.000000,396.467957 
	C2.589315,393.230042 5.098923,391.907043 8.086739,390.961243 
	C35.175228,382.386505 62.845005,376.524078 91.125259,373.975281 
	C113.862465,371.926025 136.668869,372.070190 159.471741,373.520233 
	C176.459442,374.600494 193.221817,377.112366 209.875610,380.502747 
	C211.830170,380.900635 213.854431,381.147552 215.514633,383.176086 
	C217.010986,385.826141 216.565201,388.056976 215.279892,390.109375 
	C211.248352,396.546844 207.366013,403.079224 203.155701,409.402985 
	C201.958328,411.201385 200.579483,412.884399 197.754166,413.124512 
	C184.636276,411.533783 172.099121,408.828400 159.275955,408.173553 
	C144.534119,407.420746 129.896179,405.938690 115.016075,407.030701 
	C99.583954,408.163239 84.229958,409.467743 68.959862,411.956421 
	C50.029636,415.041565 31.539299,419.803925 13.359836,425.874878 
	C10.633085,426.785492 7.830427,428.563446 4.480362,426.304657 
z"/>
<path fill="#FF557C" opacity="1.000000" stroke="none" 
	d="
M769.000000,339.562500 
	C766.667419,340.133301 765.463745,338.658234 764.270325,336.925140 
	C748.607727,314.179352 732.000366,292.145477 714.276184,270.962860 
	C694.601318,247.448853 673.231628,225.480453 650.838806,204.632339 
	C618.174988,174.221680 582.880249,147.029770 545.308044,122.863922 
	C511.940796,101.402603 477.256378,82.406235 440.937531,66.367645 
	C398.190460,47.490322 354.184570,32.397621 308.759949,21.446659 
	C301.482147,19.692118 294.162476,18.110586 286.859131,16.462614 
	C284.729126,15.981985 282.664032,15.377255 280.659241,13.593302 
	C287.786560,11.577588 295.248169,9.836971 303.134888,8.131395 
	C304.575195,10.381137 306.580536,11.177916 308.734253,11.671515 
	C345.974030,20.206387 382.180664,32.045979 417.650421,46.132755 
	C431.405273,51.595501 444.971436,57.574829 458.416473,63.768330 
	C495.988129,81.075829 531.635437,101.821976 565.884521,124.967934 
	C589.323792,140.808456 611.675171,158.075729 633.161560,176.506210 
	C650.970398,191.782135 668.412109,207.452972 684.692749,224.320618 
	C712.427734,253.055466 738.185913,283.494568 761.379089,316.050995 
	C762.438049,317.537567 763.253845,319.236328 765.509338,319.914001 
	C767.673645,324.377655 765.754028,329.442169 768.662964,333.344543 
	C769.000000,335.041656 769.000000,337.083344 769.000000,339.562500 
z"/>
<path fill="#118EFF" opacity="1.000000" stroke="none" 
	d="
M153.468628,769.000000 
	C154.008835,766.675964 151.643494,766.899963 150.768082,766.422180 
	C142.819733,762.084106 137.269821,755.727783 134.612610,747.098877 
	C133.622894,743.885010 132.985336,740.385376 133.084900,737.042725 
	C133.642548,718.319214 131.338547,699.658081 132.097748,680.477783 
	C133.597000,677.922241 135.732437,677.738464 137.953293,677.969421 
	C175.069809,681.829895 205.859406,707.690796 215.591278,743.755432 
	C216.107559,745.668579 216.849915,747.607727 215.276337,749.821533 
	C202.560532,755.673645 190.078278,761.199402 177.617645,766.773499 
	C176.770859,767.152283 176.086395,767.893799 175.663239,768.733337 
	C168.645752,769.000000 161.291504,769.000000 153.468628,769.000000 
z"/>
<path fill="#8148FF" opacity="1.000000" stroke="none" 
	d="
M215.608765,385.498718 
	C211.457016,381.672150 206.272934,382.227081 201.688293,381.293427 
	C170.072144,374.854767 137.999969,373.706207 105.948097,375.213776 
	C75.021072,376.668427 44.611012,382.216400 14.982533,391.514160 
	C10.546521,392.906219 6.143596,394.403717 1.362682,395.926208 
	C1.000000,388.312408 1.000000,380.624847 1.000000,372.468628 
	C13.803902,369.044312 26.271847,364.826233 39.155491,362.126190 
	C57.230385,358.338135 75.385345,355.388184 93.813156,353.825043 
	C103.584763,352.996246 113.398880,352.298553 123.134964,352.187469 
	C158.329681,351.785858 193.122665,355.732178 227.793076,364.026001 
	C229.570358,365.473541 229.414978,367.172150 228.598343,368.616486 
	C225.544586,374.017487 222.524307,379.454163 218.581314,384.287781 
	C217.945755,385.066925 217.010971,385.442230 215.608765,385.498718 
z"/>
<path fill="#FF656C" opacity="1.000000" stroke="none" 
	d="
M744.058105,235.581741 
	C741.705017,235.742126 740.309753,233.955978 738.904663,232.364105 
	C724.368591,215.895081 708.993347,200.234802 693.343018,184.834518 
	C671.522034,163.362228 648.165894,143.679306 623.967529,124.957588 
	C597.751526,104.674927 570.368042,86.118523 541.839111,69.265625 
	C513.599609,52.583702 484.506989,37.571918 454.388611,24.518082 
	C437.892059,17.368191 421.220551,10.718258 404.348480,4.533911 
	C402.539612,3.870898 400.438446,3.491887 399.122437,1.321491 
	C408.020905,1.000000 417.041779,1.000000 426.531342,1.000000 
	C426.013214,2.715652 427.516693,2.993718 428.419342,2.903917 
	C432.417938,2.506097 436.204559,3.999559 440.569519,4.094935 
	C466.056885,12.408323 489.562408,24.185402 512.779785,36.442062 
	C556.845825,59.704853 598.724792,86.439323 637.919800,117.292389 
	C654.121643,130.045929 669.909973,143.271332 685.091614,157.234451 
	C694.636841,166.013519 704.099426,174.876465 713.498474,183.809509 
	C717.612671,187.719711 721.365601,191.932922 724.475037,196.705566 
	C725.468079,198.229767 726.483765,199.793991 728.562805,200.780518 
	C734.617126,212.084839 739.351562,223.626007 744.058105,235.581741 
z"/>
<path fill="#456DFF" opacity="1.000000" stroke="none" 
	d="
M61.332573,579.194824 
	C54.433445,570.204712 48.759056,560.796509 43.979500,550.469482 
	C43.613010,547.036255 46.194416,546.707336 48.063915,546.037781 
	C64.401573,540.187439 81.112160,535.803040 98.382523,533.787415 
	C110.276535,532.399231 122.214500,531.390259 134.196060,531.770020 
	C187.282959,533.452393 234.837616,550.337769 276.444092,583.619568 
	C308.325958,609.122498 331.772949,640.909607 347.331451,678.540344 
	C355.381714,698.011169 360.519135,718.296936 362.951508,739.241882 
	C363.198242,741.366455 363.520752,743.608276 361.297821,745.562988 
	C351.883087,745.403564 342.798859,744.621216 333.753387,743.389221 
	C332.138428,743.169250 330.501617,743.109619 328.439453,742.904785 
	C325.446167,740.648315 325.500824,737.440491 325.024048,734.566284 
	C319.048370,698.544250 304.313599,666.408936 280.691711,638.756165 
	C248.904083,601.544312 208.484222,578.978027 160.071350,571.142944 
	C128.832718,566.087280 98.104057,568.369141 67.998001,578.310974 
	C65.975151,578.979004 63.972073,580.026245 61.332573,579.194824 
z"/>
<path fill="#EC4C9A" opacity="1.000000" stroke="none" 
	d="
M186.540466,50.979446 
	C193.821777,52.898201 201.015930,53.023533 208.076691,53.773190 
	C232.084183,56.322128 255.835831,60.313797 279.420898,65.361855 
	C326.129517,75.359200 371.387024,89.872147 415.153778,109.041809 
	C454.286316,126.181686 491.807068,146.309128 527.357727,169.989502 
	C550.487793,185.396484 572.519226,202.298569 593.821106,220.185486 
	C615.152100,238.096817 634.804382,257.746552 654.059753,277.768188 
	C669.953613,294.294495 684.491638,312.064789 698.534973,330.225037 
	C718.530029,356.081818 736.277466,383.411469 752.742310,411.608917 
	C756.495483,418.036652 759.035889,425.193268 764.525513,430.880920 
	C765.424377,438.429016 762.329895,445.343811 761.456421,452.830536 
	C756.664917,454.833832 755.575378,451.100800 754.255066,448.506378 
	C749.117859,438.411804 743.881287,428.377563 738.194214,418.579132 
	C719.947083,387.140167 699.640686,357.111877 676.980347,328.671997 
	C658.174194,305.069183 637.880432,282.824280 616.147583,261.908844 
	C598.399597,244.828293 579.755981,228.774994 560.308655,213.624741 
	C536.100464,194.765427 510.748016,177.642624 484.338776,162.050125 
	C457.627319,146.279190 429.949127,132.437225 401.350250,120.430878 
	C364.568665,104.989304 326.733490,92.765244 287.902679,83.684013 
	C261.804688,77.580574 235.425995,73.009384 208.765274,70.089050 
	C197.526199,68.857948 186.309219,67.531799 174.998840,67.030739 
	C172.050964,66.900146 168.498428,67.129829 166.847183,63.255836 
	C173.362106,58.926605 179.771347,54.962715 186.540466,50.979446 
z"/>
<path fill="#5F5CFF" opacity="1.000000" stroke="none" 
	d="
M445.282959,741.576538 
	C441.901001,744.309570 438.041992,742.776062 434.548584,743.735107 
	C429.899628,745.011475 424.798096,744.639221 419.445984,744.904297 
	C415.997803,742.640808 416.364014,739.109131 416.052246,736.151306 
	C412.021149,697.905212 400.315399,662.101562 382.054779,628.372986 
	C371.401367,608.695374 358.323822,590.763245 343.432953,574.032166 
	C317.838501,545.274597 287.313599,523.283752 252.828659,506.554718 
	C240.236145,500.445923 227.194809,495.438263 213.818985,491.327118 
	C211.321884,490.559692 209.125305,489.636749 207.990021,486.663513 
	C207.807266,484.483551 208.502426,482.905670 209.864182,481.882507 
	C216.779877,476.686462 223.323257,470.997681 230.546875,466.211700 
	C231.389954,465.653107 232.391632,465.462158 233.793579,465.494202 
	C268.243622,477.115845 299.230042,494.249054 327.422729,516.611694 
	C357.753387,540.670227 383.062653,569.131165 402.928864,602.310303 
	C424.549011,638.418701 438.906952,677.248718 445.198730,718.958557 
	C445.992249,724.219116 446.851746,729.476257 447.139221,734.789307 
	C447.261536,737.049377 447.655518,739.526855 445.282959,741.576538 
z"/>
<path fill="#6857FF" opacity="1.000000" stroke="none" 
	d="
M445.433990,741.904175 
	C444.367279,718.672241 439.228821,696.299988 432.525909,674.300232 
	C420.694427,635.467712 402.006927,600.098206 376.560608,568.494324 
	C351.475098,537.338562 321.644531,511.557861 286.709412,491.839874 
	C271.012787,482.980438 254.816605,475.221680 237.859573,469.074707 
	C236.623901,468.626801 235.508331,467.847565 234.010895,467.040558 
	C233.127274,465.008728 233.965332,463.588776 235.299637,462.532227 
	C241.732468,457.438629 248.351471,452.588348 254.952484,447.716278 
	C256.043335,446.911133 257.359222,446.702942 259.087646,446.970825 
	C264.560760,450.266296 270.256195,452.213623 275.649231,454.794769 
	C302.792480,467.785858 327.941925,483.849091 351.027618,503.219360 
	C376.184265,524.327332 397.882233,548.528198 416.114258,575.744324 
	C431.914978,599.331116 444.611877,624.582764 454.123566,651.392944 
	C462.892242,676.108765 468.935303,701.458374 471.936523,727.508789 
	C472.306091,730.716553 473.188019,734.096741 471.260620,737.558228 
	C462.666260,739.480103 454.380127,741.417908 445.433990,741.904175 
z"/>
<path fill="#4D68FF" opacity="1.000000" stroke="none" 
	d="
M361.463501,745.904480 
	C359.921936,726.220398 355.275787,707.340820 348.740387,688.937622 
	C340.605865,666.031494 329.202850,644.797241 314.321106,625.544312 
	C289.714874,593.710388 259.070770,569.546265 222.103348,553.468262 
	C199.791397,543.764282 176.551926,537.415588 152.371735,535.154724 
	C118.503098,531.987854 85.293930,535.567383 53.050110,546.816284 
	C50.223942,547.802185 47.369255,548.706360 44.238510,549.876709 
	C39.778900,544.971558 37.377476,538.921875 34.981129,532.479004 
	C34.600956,529.195435 36.832863,528.514038 38.828568,527.787720 
	C59.553444,520.245422 80.781677,514.895569 102.784401,512.663818 
	C146.566101,508.222992 188.626862,514.893494 229.185562,531.726624 
	C251.177353,540.853943 271.232452,553.220154 289.716217,568.129700 
	C319.438965,592.104919 342.802765,621.256042 359.391022,655.654480 
	C372.364563,682.557251 380.667603,710.879639 383.590912,740.694092 
	C383.759888,742.417114 383.923187,744.001587 382.333374,745.606323 
	C375.309692,745.880737 368.618469,745.928223 361.463501,745.904480 
z"/>
<path fill="#E64AA1" opacity="1.000000" stroke="none" 
	d="
M166.631805,63.034584 
	C169.964325,64.525879 173.333160,64.773857 176.600235,64.929993 
	C200.878860,66.090294 224.886932,69.462265 248.828308,73.451279 
	C288.694183,80.093567 327.561035,90.584297 365.616150,104.076744 
	C405.100952,118.076073 442.999634,135.532944 479.322083,156.473740 
	C506.198792,171.968842 532.030273,188.986374 556.659485,207.820877 
	C573.832397,220.953445 590.289062,234.930374 606.255127,249.538330 
	C617.452576,259.783295 628.193481,270.464386 638.708069,281.353119 
	C661.146912,304.590454 681.725220,329.441772 700.442139,355.775085 
	C721.303101,385.124939 740.638184,415.430634 756.458862,447.862030 
	C757.400574,449.792511 758.394714,451.762970 760.785767,452.936768 
	C761.106873,458.798920 758.425476,464.017883 757.442383,469.847839 
	C753.463867,471.011902 752.533325,468.068665 751.387512,465.830353 
	C746.990601,457.241058 742.591370,448.657074 738.040771,440.144836 
	C723.354492,412.672974 706.509644,386.575653 688.530029,361.167511 
	C674.779297,341.735535 659.555359,323.489410 643.759521,305.747284 
	C635.596985,296.578918 627.502075,287.260742 617.981873,278.839020 
	C616.987549,277.650818 616.559509,276.551544 616.208679,275.462097 
	C613.472046,266.964569 608.101257,261.964661 598.761841,262.089325 
	C597.768860,262.102600 596.781982,261.893188 595.576904,261.156189 
	C582.829956,248.375092 569.054321,237.360184 555.258057,226.392258 
	C530.076111,206.372803 503.457489,188.445953 475.659637,172.251236 
	C442.941925,153.190262 408.885864,136.951950 373.503571,123.483162 
	C336.075165,109.235466 297.694458,98.323601 258.355988,90.830521 
	C235.150345,86.410378 211.803482,82.978889 188.231522,81.119827 
	C177.458725,80.270203 166.711136,79.185638 155.887711,79.177437 
	C153.241943,79.175430 150.353119,79.213211 149.807449,75.253235 
	C154.627975,69.897652 160.912506,67.157127 166.631805,63.034584 
z"/>
<path fill="#3C73FF" opacity="1.000000" stroke="none" 
	d="
M60.977318,579.463989 
	C69.096802,574.217224 78.324287,572.465576 87.377609,570.510132 
	C101.703323,567.415894 116.335335,565.765320 130.949234,566.126282 
	C177.687561,567.280518 219.693665,581.870300 256.177063,611.595764 
	C293.844849,642.286377 316.638306,681.821777 326.488159,729.108704 
	C327.366364,733.324890 328.318451,737.582092 328.003479,742.397827 
	C319.468323,741.485107 310.932617,740.136597 302.177002,738.444702 
	C299.964386,736.435242 298.988068,734.331299 298.443085,731.745911 
	C292.455780,703.342407 280.176453,677.875061 261.512787,655.708069 
	C244.451233,635.443726 223.681290,619.850037 199.368118,609.112427 
	C174.906799,598.309326 149.283936,593.439209 122.597824,594.310974 
	C109.088997,594.752319 95.803421,596.933960 82.745445,600.460205 
	C80.688889,601.015503 78.599197,601.954407 76.196472,600.280151 
	C70.011963,593.973083 65.667076,586.779419 60.977318,579.463989 
z"/>
<path fill="#5265FF" opacity="1.000000" stroke="none" 
	d="
M382.356689,746.014221 
	C378.568359,711.335693 369.155945,678.572510 352.886414,647.937439 
	C343.422180,630.116699 331.683350,613.851990 318.313507,598.649780 
	C297.608337,575.107178 273.152222,556.440857 245.575562,541.961060 
	C221.858704,529.507874 196.444916,521.681702 170.049088,516.933228 
	C156.417694,514.480957 142.622314,513.353027 128.918243,513.435974 
	C101.874695,513.599548 75.278824,517.668640 49.602604,526.640259 
	C44.894547,528.285339 40.199932,529.968872 35.224163,531.869751 
	C30.937231,526.132263 29.013903,519.197876 26.101578,512.375000 
	C26.985682,509.260559 29.230423,508.305176 31.656605,507.428009 
	C57.796139,497.977631 84.604050,492.010712 112.460640,490.478149 
	C124.970612,489.789948 137.362991,489.256195 150.145844,491.377869 
	C153.021347,492.441956 153.675095,494.740570 154.641998,496.861511 
	C159.896805,508.387848 170.311890,511.078796 180.756973,503.740601 
	C182.753067,502.338287 184.646835,500.498352 187.797913,500.781891 
	C197.539444,503.731995 206.995239,506.291748 216.296677,509.404785 
	C244.818253,518.950439 270.988892,532.849915 294.798401,551.203735 
	C324.985779,574.474060 349.371155,602.694763 367.773376,636.138489 
	C384.092285,665.796021 394.351440,697.388611 399.015045,730.851318 
	C399.427124,733.807922 399.441956,736.810303 399.962708,739.774963 
	C400.304321,741.719788 400.359741,743.808472 398.282318,745.574463 
	C392.904083,745.953857 387.808289,746.074524 382.356689,746.014221 
z"/>
<path fill="#3279FF" opacity="1.000000" stroke="none" 
	d="
M75.941612,600.392944 
	C96.413857,593.513672 117.514252,590.787537 138.936600,592.122559 
	C167.590790,593.908386 194.513916,601.792969 219.271790,616.754395 
	C231.602875,624.206177 243.169067,632.754333 253.133591,642.951355 
	C277.896637,668.292358 294.419312,698.301941 301.126007,733.373291 
	C301.375946,734.680237 301.655396,735.981567 301.939087,737.693420 
	C291.795715,736.990540 282.082611,733.819092 272.185242,731.510376 
	C270.705170,731.165161 269.284241,731.158691 267.419189,730.904907 
	C264.806274,729.404297 264.618103,726.938599 263.905029,724.764404 
	C251.343689,686.464233 226.878952,658.228638 190.997406,640.265869 
	C164.524796,627.013367 136.254471,623.405579 107.000801,627.767273 
	C104.428604,628.150757 102.055878,627.860840 99.256332,627.171814 
	C89.926605,619.438049 83.209831,609.875610 75.941612,600.392944 
z"/>
<path fill="#6F52FF" opacity="1.000000" stroke="none" 
	d="
M471.397217,737.894165 
	C468.972443,724.876404 467.802002,711.794495 465.081390,698.936707 
	C456.377838,657.802979 441.004669,619.386108 418.537964,583.817566 
	C404.079956,560.927979 387.121765,540.030090 367.655212,521.280762 
	C345.402954,499.848297 320.868439,481.413116 293.583588,466.689056 
	C283.458374,461.225098 273.188263,456.153625 262.603546,451.685181 
	C261.029572,451.020721 259.568481,450.269012 258.994873,448.082062 
	C258.437134,446.529388 258.639557,445.258423 259.510559,444.529541 
	C264.476440,440.373596 268.992645,435.529144 275.872681,433.628479 
	C303.420135,444.401001 327.914093,459.804138 350.981384,477.442505 
	C389.792114,507.119141 421.536407,543.191528 445.779907,585.627197 
	C468.806427,625.932678 484.145813,668.989807 490.397217,715.139832 
	C490.842194,718.424866 491.250702,721.730957 491.858246,725.007263 
	C492.334442,727.575256 492.782196,730.351318 490.284485,732.823547 
	C484.223267,735.723389 477.743073,735.838074 471.397217,737.894165 
z"/>
<path fill="#5861FF" opacity="1.000000" stroke="none" 
	d="
M398.462891,745.904419 
	C396.849335,726.998962 393.380554,708.585327 388.005920,690.512451 
	C378.262054,657.747620 362.989136,627.770996 341.867126,600.931946 
	C320.252625,573.467041 294.354309,550.841309 263.935974,533.384094 
	C241.375198,520.436340 217.382980,511.267761 192.347397,504.574097 
	C190.797791,504.159729 188.956848,504.127686 187.988800,501.951508 
	C187.418411,500.165344 187.873611,498.850006 188.904709,498.001038 
	C194.228149,493.617798 199.469254,489.114288 205.369980,485.493042 
	C206.227173,484.966949 207.246246,484.916718 208.556244,485.434082 
	C209.860138,487.600250 211.651627,488.342468 213.630966,488.936218 
	C251.131073,500.185486 284.832245,518.537292 314.960876,543.458374 
	C355.944946,577.358582 384.980682,619.631592 403.044586,669.571655 
	C411.753998,693.649963 417.171143,718.414856 419.000671,744.396301 
	C412.378510,746.430725 405.640167,745.991577 398.462891,745.904419 
z"/>
<path fill="#7A4BFF" opacity="1.000000" stroke="none" 
	d="
M525.279541,721.820923 
	C520.047668,725.203430 514.317627,726.268860 508.440186,728.058105 
	C504.500275,727.218628 504.280701,724.149597 503.947113,721.417847 
	C500.872925,696.243225 495.341034,671.648682 487.247101,647.598022 
	C473.810272,607.671204 454.475250,570.937561 428.819519,537.483032 
	C418.984406,524.658142 408.530609,512.383545 397.138519,500.980713 
	C372.558105,476.377014 345.012878,455.590942 314.757843,438.391174 
	C308.672516,434.931732 302.382874,431.903076 296.182953,428.684082 
	C293.958588,427.529205 291.668854,426.424652 290.916809,423.278198 
	C294.781952,415.455383 300.935791,411.198608 309.597595,410.038513 
	C339.262787,423.840393 365.283112,442.492188 389.888031,463.206879 
	C425.622131,493.291138 454.610046,529.061768 477.707397,569.548462 
	C494.595734,599.151550 507.368561,630.533264 516.079651,663.531555 
	C520.667053,680.908936 524.407227,698.442566 526.327393,716.332947 
	C526.519958,718.126648 527.064575,719.995728 525.279541,721.820923 
z"/>
<path fill="#8148FF" opacity="1.000000" stroke="none" 
	d="
M525.439697,722.064453 
	C521.205261,691.447327 514.433838,661.459473 503.935120,632.370056 
	C491.425171,597.707947 474.479431,565.371582 453.028351,535.367249 
	C439.830536,516.906982 425.253326,499.609802 409.099121,483.750061 
	C383.815155,458.926941 355.884644,437.482117 324.760468,420.351074 
	C319.656525,417.541779 314.643677,414.567017 309.209015,411.465027 
	C309.622314,408.468353 311.857697,408.081818 314.297516,407.858429 
	C321.177002,407.228607 327.029694,409.719940 332.389648,413.705658 
	C361.635223,435.452698 390.682159,457.465149 419.912781,479.232147 
	C428.486176,485.616425 437.934967,489.907410 448.710510,490.849396 
	C450.590851,491.013763 452.336334,491.380219 453.884491,493.166077 
	C460.410675,501.804474 466.968140,509.929718 473.169312,518.337341 
	C492.132294,544.047668 507.322662,571.894653 519.968750,601.139282 
	C532.161133,629.334717 540.978394,658.618225 546.566589,688.828064 
	C548.005737,696.607971 550.206543,704.353638 549.222290,712.768677 
	C541.438049,716.414307 534.033630,720.245544 525.439697,722.064453 
z"/>
<path fill="#9D35FF" opacity="1.000000" stroke="none" 
	d="
M635.173157,660.758423 
	C627.360046,667.642090 619.068542,673.342712 610.393799,679.061035 
	C607.660950,678.145325 607.311218,675.918884 606.891113,673.822693 
	C601.023804,644.546448 592.761169,615.957581 581.682434,588.238342 
	C571.105591,561.774841 558.504883,536.282532 543.491150,512.022827 
	C533.415283,495.741852 522.658752,479.936859 510.578766,465.057098 
	C509.323547,463.510895 508.452362,461.679871 507.141663,459.687622 
	C506.416229,457.833466 506.621521,456.374451 507.432190,455.036102 
	C511.303558,448.644684 515.212830,442.275970 519.375000,436.067932 
	C520.032532,435.087219 520.962097,434.373047 522.445068,433.805573 
	C525.633118,433.409912 527.433777,434.906921 529.135193,436.948364 
	C548.246521,459.878845 565.028809,484.406433 579.831665,510.316986 
	C597.388184,541.047363 611.639221,573.245300 622.550720,606.892517 
	C627.577515,622.393250 632.126282,638.051208 635.456543,654.036499 
	C635.921021,656.266113 635.814697,658.289307 635.173157,660.758423 
z"/>
<path fill="#923CFF" opacity="1.000000" stroke="none" 
	d="
M598.232605,686.777588 
	C593.872620,690.962463 588.480652,692.858154 583.827698,695.956909 
	C580.360657,698.265869 576.509399,699.997681 572.469238,702.018188 
	C568.641235,702.173340 568.273865,699.579529 567.865845,697.115540 
	C563.317810,669.650208 556.210754,642.857788 546.886658,616.634277 
	C536.150757,586.440125 522.259583,557.804871 505.071533,530.743896 
	C497.220886,518.383789 488.711761,506.502991 479.981537,494.768005 
	C478.669952,493.005035 477.367462,491.302155 477.601746,488.553680 
	C477.934235,486.183136 479.269135,484.993530 480.873413,484.057770 
	C486.588257,480.724579 491.879303,476.867157 496.274292,471.864685 
	C497.411743,470.570038 498.901062,469.923462 501.019928,469.891418 
	C503.605804,470.643951 504.860016,472.387756 506.203796,474.110443 
	C527.359741,501.231506 545.355164,530.321899 560.225098,561.319519 
	C578.310242,599.019531 590.913879,638.538025 598.836487,679.569946 
	C599.283325,681.884460 599.380859,684.200684 598.232605,686.777588 
z"/>
<path fill="#754FFF" opacity="1.000000" stroke="none" 
	d="
M291.557556,422.451508 
	C293.230164,425.287659 295.965698,425.984528 298.313354,427.123718 
	C327.994568,441.526581 355.062927,459.959839 379.846436,481.564331 
	C410.914185,508.646942 436.699310,540.276489 457.447266,575.929810 
	C481.572479,617.386597 497.150330,661.897888 504.777039,709.222534 
	C505.752808,715.277100 505.681610,721.502136 507.890228,727.742676 
	C502.437134,730.166809 496.733856,731.899414 490.448181,733.065063 
	C488.603363,711.112427 484.147095,689.634705 478.239319,668.472717 
	C471.823730,645.491760 463.012848,623.388611 452.060974,602.183716 
	C438.268921,575.479614 421.659790,550.692383 401.717529,528.125305 
	C378.769714,502.157104 352.929016,479.613556 323.613068,461.125946 
	C310.669678,452.963348 297.494995,445.180267 283.380035,439.123718 
	C280.949127,438.080658 278.721497,436.563843 276.087891,435.092407 
	C275.622162,434.450897 275.382812,433.854248 275.651337,433.500702 
	C279.698547,428.172302 284.171631,423.406952 291.557556,422.451508 
z"/>
<path fill="#8942FF" opacity="1.000000" stroke="none" 
	d="
M478.710541,487.704742 
	C479.598297,491.696930 482.337372,494.110626 484.427216,496.844971 
	C501.153564,518.729675 515.915894,541.898193 528.145081,566.535400 
	C548.627197,607.799072 562.792175,651.198608 570.097534,696.762024 
	C570.355591,698.371582 571.103516,699.902588 571.866150,701.760010 
	C565.827576,706.318909 558.617493,708.695312 551.488281,712.011414 
	C550.937866,712.173950 550.755005,712.310669 550.289185,712.640259 
	C549.847717,712.885498 549.689270,712.937927 549.287842,713.050659 
	C545.668091,703.476440 545.290588,693.250427 543.210144,683.351379 
	C534.214111,640.547913 519.241272,600.057678 498.027893,561.772034 
	C485.649170,539.430969 471.106720,518.657898 455.211792,498.758545 
	C454.155243,497.435791 453.051788,496.221375 453.021790,494.032349 
	C453.773071,491.998627 455.181671,491.149506 456.885712,491.018402 
	C462.981995,490.549286 468.861084,489.152130 474.620514,487.160980 
	C475.901611,486.718048 477.192505,486.658508 478.710541,487.704742 
z"/>
<path fill="#287FFF" opacity="1.000000" stroke="none" 
	d="
M99.030693,627.359009 
	C104.275665,625.186401 109.959892,624.569946 115.522057,624.178772 
	C155.187653,621.389038 191.099640,631.476562 221.650055,657.399292 
	C242.312393,674.931702 257.413849,696.620544 265.752289,722.685059 
	C266.519165,725.082153 267.168549,727.466614 266.999390,730.420532 
	C257.206635,730.083130 249.336258,735.495361 240.500397,739.013550 
	C236.009781,739.114807 235.668289,735.587280 234.795517,732.992065 
	C231.326797,722.677856 226.821411,712.955811 220.555481,703.983826 
	C202.322021,677.875916 177.166245,662.994385 146.174973,657.160156 
	C139.639160,655.929810 132.806763,657.137512 126.187088,654.269714 
	C117.229393,645.000366 106.784088,637.771362 99.030693,627.359009 
z"/>
<path fill="#DB46B0" opacity="1.000000" stroke="none" 
	d="
M749.044373,496.686218 
	C747.004761,505.966919 743.273560,514.295349 739.433472,522.869873 
	C735.213684,524.660828 734.575500,521.272522 733.613770,519.110596 
	C729.625366,510.145172 725.730896,501.141998 721.652832,492.211639 
	C712.932556,473.115509 703.096313,454.625580 692.552429,436.494171 
	C678.317261,412.015198 662.411926,388.652832 645.023010,366.323669 
	C632.357239,350.059509 619.153931,334.226135 604.734985,319.455414 
	C602.752930,317.424988 600.728394,315.449402 599.614014,312.339142 
	C600.781799,304.995544 604.779480,299.661285 610.126587,294.803650 
	C613.779541,294.052521 615.792297,296.138214 617.814880,298.148712 
	C628.210327,308.481567 637.792419,319.562134 647.195679,330.776276 
	C664.744690,351.704926 681.162537,373.505798 696.036438,396.427338 
	C707.457275,414.027344 718.127441,432.067780 728.021606,450.592621 
	C734.856689,463.389771 740.926575,476.518127 747.016846,489.657837 
	C748.018005,491.817871 748.434082,494.072784 749.044373,496.686218 
z"/>
<path fill="#CE42C1" opacity="1.000000" stroke="none" 
	d="
M730.234863,542.807251 
	C728.079468,549.594543 723.517273,554.699341 720.431458,560.900513 
	C716.315796,561.814758 715.778320,558.726196 714.875610,556.396851 
	C709.764038,543.206360 704.831482,529.952271 699.098938,517.003296 
	C689.856201,496.125305 679.612061,475.769806 668.212097,455.988922 
	C653.562378,430.569031 637.001038,406.444611 619.039429,383.267029 
	C607.620239,368.531708 595.255188,354.606262 582.445129,340.562134 
	C582.854980,333.266724 586.410828,328.103180 592.425842,324.157013 
	C598.876953,326.120911 602.176514,331.434906 606.108704,335.778778 
	C618.719543,349.709869 630.645813,364.223602 642.052063,379.177338 
	C653.772583,394.543121 664.606262,410.500092 674.915161,426.822327 
	C687.639648,446.969238 698.954834,467.907593 709.240356,489.389862 
	C716.283081,504.099304 722.903748,519.007568 728.702637,534.262512 
	C729.704956,536.899292 730.773254,539.558350 730.234863,542.807251 
z"/>
<path fill="#AA37F2" opacity="1.000000" stroke="none" 
	d="
M659.140991,639.669312 
	C654.666443,644.036316 650.203430,648.025696 645.390503,652.065552 
	C642.034546,651.354431 641.571594,648.714111 641.009338,646.337097 
	C632.119934,608.755920 619.142639,572.659912 602.385071,537.858521 
	C584.602051,500.927521 562.579407,466.739929 536.913391,434.855225 
	C534.303406,431.612793 531.555969,428.497925 529.187195,424.594177 
	C528.998657,418.026245 532.814941,413.986694 537.375122,410.012634 
	C541.295227,409.139832 543.359497,411.506958 545.326660,413.733887 
	C554.134888,423.705658 562.218445,434.264740 570.089233,444.977753 
	C590.230530,472.392548 607.522705,501.516663 622.206421,532.203064 
	C636.315552,561.688721 647.467407,592.266296 656.074768,623.775635 
	C657.460815,628.849243 659.948242,633.763489 659.140991,639.669312 
z"/>
<path fill="#D645B8" opacity="1.000000" stroke="none" 
	d="
M730.363342,542.951050 
	C720.041565,518.846008 709.896362,494.637268 697.682678,471.361084 
	C678.248779,434.325256 655.685913,399.352112 629.409973,366.761719 
	C617.834839,352.404968 605.677124,338.592102 592.923462,324.803955 
	C591.780090,319.715332 595.050659,313.959473 600.486145,311.614929 
	C605.756470,318.253082 611.983765,323.582153 617.399841,329.673157 
	C634.108765,348.464355 649.773499,368.043823 664.342957,388.523376 
	C685.921509,418.855316 704.595032,450.899475 720.666321,484.451294 
	C725.840027,495.252350 730.396301,506.348328 735.302307,517.279236 
	C736.166565,519.204773 736.438660,521.515381 738.787231,522.918457 
	C737.106934,529.962646 733.482361,536.195496 730.363342,542.951050 
z"/>
<path fill="#1F85FF" opacity="1.000000" stroke="none" 
	d="
M125.946396,654.286011 
	C133.696640,652.741821 141.444214,653.893738 149.032394,655.350952 
	C173.913284,660.129150 195.390259,671.478516 212.604828,690.209167 
	C222.806870,701.309631 230.836670,713.869202 235.643723,728.323059 
	C236.793762,731.780945 238.307816,735.117798 239.894287,738.775269 
	C232.016861,742.695374 223.899567,746.350525 215.409973,750.071045 
	C210.711136,732.491943 202.942963,716.675903 189.549362,704.137268 
	C173.688095,689.288635 154.836792,681.101685 132.598938,680.012817 
	C130.358673,672.308716 132.014221,663.871826 127.114914,656.455139 
	C126.824913,655.941223 126.688988,655.757019 126.356987,655.290894 
	C126.109787,654.849304 126.058655,654.689636 125.946396,654.286011 
z"/>
<path fill="#C940C9" opacity="1.000000" stroke="none" 
	d="
M582.588135,339.869690 
	C586.966614,341.105865 589.145386,344.501129 591.646057,347.264832 
	C609.613647,367.122559 626.289124,388.022705 641.643738,409.975006 
	C661.140747,437.849518 678.193237,467.146271 692.897095,497.811951 
	C702.038513,516.877014 710.062805,536.411621 717.262817,556.288330 
	C717.821960,557.831787 718.059509,559.559814 719.813110,560.846680 
	C718.202515,566.455200 714.531128,570.858398 711.427368,575.908081 
	C707.485474,576.733521 707.095581,573.691895 706.274780,571.557556 
	C701.975464,560.377991 698.202515,549.002808 693.683289,537.901123 
	C675.215698,492.534393 651.610657,450.048523 622.896118,410.348816 
	C608.647766,390.649475 593.312073,371.878784 577.005066,353.875336 
	C576.434143,353.245087 576.071655,352.505737 575.547852,351.397491 
	C575.456604,345.934296 577.275330,341.909973 582.588135,339.869690 
z"/>
<path fill="#9639FF" opacity="1.000000" stroke="none" 
	d="
M598.402893,687.060547 
	C595.012024,673.658325 592.281982,660.125427 588.881592,646.763000 
	C582.178406,620.421143 572.867676,594.999512 561.685364,570.201660 
	C545.584656,534.497131 524.780640,501.741547 500.690186,470.497345 
	C499.739380,465.486053 502.260590,461.166718 507.521362,458.856018 
	C514.976440,465.172729 519.854065,473.180542 525.352173,480.650269 
	C544.075562,506.087891 559.663574,533.407837 572.952393,562.014526 
	C590.217407,599.180664 602.633667,637.936584 610.023071,678.697815 
	C606.749451,682.419067 602.616638,684.515076 598.402893,687.060547 
z"/>
<path fill="#A434FA" opacity="1.000000" stroke="none" 
	d="
M529.463989,423.858459 
	C534.428345,427.167816 537.334412,431.901215 540.770386,436.140869 
	C562.951782,463.510620 581.909485,492.958954 598.174927,524.216187 
	C617.094604,560.574097 631.224060,598.702271 641.576904,638.292297 
	C642.712830,642.635986 643.782288,646.997009 644.961548,651.733032 
	C642.720154,655.887817 638.368469,657.477234 635.356323,660.979065 
	C630.793274,645.567688 627.164307,629.861633 622.455994,614.417725 
	C616.427246,594.642517 609.022522,575.412170 600.684448,556.552979 
	C588.013367,527.893127 572.652710,500.685669 554.892578,474.855652 
	C545.945312,461.842957 536.445435,449.239624 526.332031,437.107727 
	C525.626160,436.260986 524.491272,435.771820 523.212585,435.038574 
	C522.155884,430.406036 524.528381,426.131958 529.463989,423.858459 
z"/>
<path fill="#C43FCE" opacity="1.000000" stroke="none" 
	d="
M576.060364,350.065979 
	C609.960449,385.998016 638.493896,425.483459 662.683411,468.200836 
	C681.276978,501.036041 696.071411,535.507019 708.537476,571.046387 
	C709.081482,572.597168 709.902222,574.050842 710.850098,575.799805 
	C711.106201,576.049866 710.995239,576.536438 710.926270,576.776245 
	C710.720642,577.201294 710.584045,577.386475 710.247559,577.853271 
	C707.925781,581.362610 705.803772,584.590393 703.364685,587.963379 
	C699.389099,587.695923 698.921326,584.555603 698.066895,581.974426 
	C693.414917,567.919495 688.457703,553.979187 682.798035,540.296326 
	C669.229431,507.493042 653.016724,476.070404 633.996155,446.076447 
	C618.118286,421.038330 600.255859,397.503174 581.044861,374.966339 
	C577.072876,370.306702 572.254272,366.339630 569.540894,360.221649 
	C569.639343,355.390717 571.426941,351.944000 576.060364,350.065979 
z"/>
<path fill="#C23ED2" opacity="1.000000" stroke="none" 
	d="
M570.276611,359.344238 
	C578.383789,369.608612 587.364746,378.751434 595.426575,388.694000 
	C612.964478,410.323364 629.013306,432.955292 643.372070,456.790863 
	C667.266235,496.455322 686.447998,538.279175 700.650085,582.371338 
	C701.209106,584.106873 702.031433,585.757690 702.889282,587.778320 
	C701.163208,591.513123 699.078308,594.768005 695.980896,597.688232 
	C691.837402,599.323608 691.509460,596.007996 690.682190,593.708679 
	C686.793823,582.901489 683.474915,571.899963 679.452026,561.133118 
	C667.772339,529.874451 653.378601,499.927399 636.609863,471.086395 
	C620.936218,444.128906 603.231018,418.593353 583.447571,394.508606 
	C578.492249,388.475830 573.646301,382.315247 568.056946,376.832458 
	C566.243103,375.053253 565.135254,372.826233 563.413757,370.534637 
	C563.167175,365.179596 565.112427,361.384094 570.276611,359.344238 
z"/>
<path fill="#B239E7" opacity="1.000000" stroke="none" 
	d="
M673.173340,624.756714 
	C670.473450,628.546326 667.892822,631.975342 664.349670,634.979858 
	C661.569458,634.137695 661.538757,631.699158 661.025085,629.710571 
	C649.731323,585.982300 633.101379,544.339844 611.631104,504.663544 
	C595.847534,475.496094 577.440247,448.023041 556.591125,422.193542 
	C551.893066,416.373260 546.703979,410.963898 542.116028,404.547913 
	C541.182983,399.094177 543.981995,395.931366 548.265686,393.291656 
	C552.719055,393.784760 554.838989,397.009644 557.171265,399.733551 
	C582.368652,429.161865 604.349487,460.828003 623.059875,494.762329 
	C644.301208,533.287048 660.909607,573.702087 672.677795,616.096985 
	C673.430847,618.809875 674.329163,621.542542 673.173340,624.756714 
z"/>
<path fill="#B63AE2" opacity="1.000000" stroke="none" 
	d="
M673.356323,624.974365 
	C668.661804,611.129761 664.576538,597.046936 659.837585,583.187622 
	C645.165710,540.278931 625.296021,499.888458 600.586975,461.850159 
	C585.150208,438.086121 568.277710,415.443939 549.106018,394.107117 
	C547.274109,389.488434 549.869019,387.176453 553.413696,385.031433 
	C557.064148,384.800171 558.947144,387.113068 560.827087,389.156647 
	C570.858276,400.061432 579.924561,411.760101 588.853271,423.567841 
	C612.740540,455.157654 632.672607,489.130524 649.512817,524.921448 
	C662.217346,551.922791 672.486389,579.867798 680.782959,608.532593 
	C681.428955,610.764343 682.017456,613.047302 681.173340,615.756531 
	C679.119141,619.469421 676.434937,622.189453 673.356323,624.974365 
z"/>
<path fill="#BB3CDA" opacity="1.000000" stroke="none" 
	d="
M563.653137,369.870544 
	C568.316345,372.188934 570.896729,376.216187 573.881775,379.632324 
	C596.796143,405.855713 617.305420,433.884491 635.131897,463.798401 
	C653.390625,494.437866 669.136658,526.341553 681.416992,559.874756 
	C685.479492,570.968018 689.115173,582.217285 692.978577,593.383972 
	C693.511047,594.923035 693.674683,596.686218 695.523438,597.860107 
	C694.299194,601.356079 691.731812,603.885498 688.977661,606.691650 
	C685.288879,608.330322 684.578003,605.663391 683.797729,603.317932 
	C680.805420,594.323303 677.882568,585.304443 674.798279,576.341614 
	C660.617065,535.131714 641.632385,496.231079 618.481384,459.330414 
	C603.618591,435.640411 587.009705,413.236542 568.968201,391.890045 
	C565.326050,387.580688 561.419739,383.497650 558.118530,378.422241 
	C557.896667,374.110016 559.390808,371.164642 563.653137,369.870544 
z"/>
<path fill="#DF48AB" opacity="1.000000" stroke="none" 
	d="
M749.438110,496.857666 
	C746.504883,495.419952 745.716309,492.569275 744.608154,490.027557 
	C732.158875,461.472412 717.097534,434.330658 700.627991,407.924683 
	C685.389160,383.491821 668.434998,360.296753 650.237305,338.022461 
	C639.425232,324.788422 628.252930,311.833191 616.180603,299.700653 
	C614.787781,298.300934 613.566345,296.639893 611.154907,296.018646 
	C608.712341,291.393768 612.459717,289.189087 614.985718,286.159515 
	C618.222656,284.996765 620.474731,286.022675 622.455017,288.160034 
	C633.406860,299.980591 644.479614,311.683563 654.846252,324.041107 
	C668.312683,340.093842 681.016418,356.715393 693.035095,373.870514 
	C711.093018,399.645905 727.198669,426.576782 741.538208,454.601624 
	C745.098633,461.560150 748.057739,468.801727 751.887756,475.616638 
	C752.884949,477.390961 753.293518,479.337341 753.695068,481.663818 
	C753.845947,487.270538 750.521729,491.614105 749.438110,496.857666 
z"/>
<path fill="#B83BDF" opacity="1.000000" stroke="none" 
	d="
M558.462708,377.867188 
	C565.741638,383.098846 570.486084,390.241425 575.924805,396.677856 
	C590.312195,413.704529 603.468384,431.694305 615.574219,450.410492 
	C635.400085,481.062531 652.466064,513.170105 666.239746,547.026245 
	C673.772461,565.541870 680.163452,584.431458 686.096252,603.495056 
	C686.499451,604.790833 686.896912,606.042480 688.512512,606.870605 
	C686.802734,610.236816 684.498352,613.249146 681.357361,615.972290 
	C678.208862,607.422974 675.291077,598.761963 672.550720,590.045166 
	C666.707825,571.459412 659.696594,553.319214 651.745178,535.547485 
	C637.172119,502.975830 620.065979,471.796600 599.640686,442.510834 
	C586.424011,423.560760 572.607544,405.055023 556.697693,388.222412 
	C556.017639,387.502960 555.185852,386.927002 554.126648,386.114197 
	C552.455872,381.775391 554.232849,379.242340 558.462708,377.867188 
z"/>
<path fill="#AF38EB" opacity="1.000000" stroke="none" 
	d="
M542.208374,403.803223 
	C548.838013,407.195038 552.269226,413.303650 556.512573,418.470428 
	C577.899902,444.511963 596.793579,472.319885 612.823120,501.949493 
	C632.127930,537.633179 648.137512,574.755310 658.953674,613.964417 
	C660.807129,620.683350 663.551208,627.195679 664.027466,634.690308 
	C662.597900,636.674927 661.158508,638.234558 659.424255,639.920532 
	C655.752014,635.817566 655.551636,630.440247 654.230774,625.556580 
	C643.320068,585.215942 628.015198,546.618225 608.319641,509.804016 
	C590.459595,476.420868 569.006714,445.414429 544.735535,416.365814 
	C543.057068,414.356964 541.371765,412.200775 538.454834,411.086395 
	C536.326416,407.048737 538.413696,405.065125 542.208374,403.803223 
z"/>
<path fill="#E249A6" opacity="1.000000" stroke="none" 
	d="
M754.005432,481.654785 
	C749.123230,478.321136 747.815002,472.564423 745.415039,467.586609 
	C735.652039,447.336761 724.717468,427.751709 713.044800,408.558868 
	C694.337585,377.799561 672.983398,348.946075 649.773682,321.479431 
	C640.237854,310.194611 629.937195,299.556122 619.986877,288.621460 
	C619.168152,287.721741 618.181152,287.167267 616.612793,287.035004 
	C614.011230,283.481445 615.578613,280.764648 618.520081,278.128052 
	C625.564148,281.221863 629.787598,287.202789 634.601624,292.352936 
	C644.008667,302.416748 652.884766,312.979950 661.901184,323.405121 
	C681.753357,346.358948 699.036011,371.196930 715.337708,396.736237 
	C729.677673,419.202118 742.499146,442.524780 754.252197,466.441132 
	C754.825378,467.607483 755.759460,468.596497 756.815674,469.859009 
	C756.768494,473.968811 755.912170,477.752655 754.005432,481.654785 
z"/>
<path fill="#C940C9" opacity="1.000000" stroke="none" 
	d="
M710.303223,578.044922 
	C710.174316,577.850708 710.337280,577.589233 710.696960,577.183289 
	C710.757751,577.329041 710.658203,577.642029 710.303223,578.044922 
z"/>
<path fill="#8148FF" opacity="1.000000" stroke="none" 
	d="
M550.271606,712.864929 
	C550.216919,712.608276 550.452759,712.413940 550.917236,712.143677 
	C550.926147,712.323669 550.731628,712.610229 550.271606,712.864929 
z"/>
<path fill="#FF6968" opacity="1.000000" stroke="none" 
	d="
M728.824951,200.651764 
	C724.440308,200.685135 722.367188,197.055756 719.998413,194.249512 
	C709.542114,181.862061 696.984253,171.673386 685.310425,160.564728 
	C674.950928,150.706772 663.987793,141.537842 652.992737,132.396744 
	C638.016968,119.946213 622.577026,108.111580 606.705688,96.843964 
	C568.471313,69.700043 528.226990,45.921822 485.992706,25.564201 
	C472.203949,18.917791 458.105774,12.913484 444.151611,6.609871 
	C443.105957,6.137489 441.895111,5.911108 441.133606,4.471443 
	C459.378174,6.390177 477.441864,10.151974 495.316437,14.953999 
	C520.756409,21.788500 545.218567,31.177326 568.727844,42.992653 
	C592.480347,54.930191 614.718933,69.322182 635.385559,86.027550 
	C644.586731,93.465126 653.744690,101.114227 661.908264,109.638428 
	C672.790894,121.001610 683.559265,132.511261 693.122986,145.121109 
	C706.027222,162.135742 717.911987,179.725677 727.419861,198.874390 
	C727.700439,199.439484 728.331299,199.830643 728.824951,200.651764 
z"/>
<path fill="#C940C9" opacity="1.000000" stroke="none" 
	d="
M68.381477,157.345978 
	C72.222641,151.402542 76.278931,145.803284 80.646622,140.045700 
	C98.864944,138.674850 116.778610,137.378143 134.737335,137.751755 
	C178.056931,138.652939 220.985306,143.078186 263.364746,152.368759 
	C304.463287,161.378510 344.277191,174.288910 382.791168,191.231949 
	C430.715637,212.314804 475.196960,239.145767 516.532227,271.233948 
	C524.415527,277.353638 532.073914,283.756622 539.708496,290.181122 
	C541.822144,291.959778 544.235596,293.731537 544.400635,297.371948 
	C542.323303,303.347015 537.943115,305.998016 532.043945,307.125732 
	C521.203369,300.108765 512.153931,291.444366 502.261322,283.839600 
	C466.328796,256.216919 427.880981,232.703278 386.798950,213.648315 
	C332.679260,188.546188 276.079163,171.531677 216.955460,163.068741 
	C194.372772,159.836288 171.728973,157.686478 148.903351,157.077835 
	C141.437927,156.878769 133.952377,156.068405 126.472328,156.327454 
	C109.691338,156.908615 92.897575,157.314423 76.171333,159.012573 
	C73.602867,159.273346 70.808548,159.890594 68.381477,157.345978 
z"/>
<path fill="#D645B8" opacity="1.000000" stroke="none" 
	d="
M97.863983,121.283005 
	C102.152672,115.372620 106.518440,110.013954 112.605118,105.924179 
	C118.778648,105.779861 124.597923,105.674355 130.419403,105.720566 
	C192.988007,106.217339 254.430984,114.531929 314.548340,132.135452 
	C348.647156,142.120239 381.628326,154.922363 413.756561,170.127060 
	C463.391907,193.616974 509.014709,223.283737 551.483276,257.945618 
	C556.634888,262.150299 561.671570,266.504608 566.609680,270.961304 
	C568.441711,272.614716 570.400940,274.317047 570.429810,277.565979 
	C568.813599,283.298828 564.712402,285.563660 559.281616,286.626648 
	C552.961975,285.202301 549.482727,280.336456 545.250916,276.745148 
	C514.707886,250.825165 481.952362,228.130615 447.243774,208.162079 
	C409.738770,186.584702 370.325897,169.297760 329.258911,155.874527 
	C290.434204,143.184235 250.760956,134.020126 210.149414,129.057251 
	C189.511978,126.535286 168.842316,124.984154 148.067688,123.984840 
	C133.563110,123.287132 119.174652,123.686821 104.729149,124.193665 
	C102.230530,124.281334 99.212349,124.912369 97.863983,121.283005 
z"/>
<path fill="#AA37F2" opacity="1.000000" stroke="none" 
	d="
M21.099915,250.343262 
	C21.598349,244.040848 25.082178,239.011246 26.606133,233.060852 
	C38.370762,229.715668 50.151169,228.502319 61.842331,227.023361 
	C85.449501,224.037018 109.227982,222.489410 132.994949,222.852203 
	C184.964722,223.645477 236.070724,230.668274 285.942322,245.871567 
	C316.921143,255.315399 346.914032,267.178650 375.769531,281.810150 
	C409.723419,299.026794 441.448761,319.771606 471.112640,343.646423 
	C472.797607,345.002502 474.431152,346.455811 475.109619,349.097931 
	C474.114532,355.044800 470.117767,357.275879 464.762482,358.384857 
	C455.546265,353.289581 448.056763,346.405334 439.856506,340.497101 
	C421.920563,327.574158 403.315460,315.747375 384.002045,304.977692 
	C374.572754,299.719666 364.549133,295.585144 355.486053,289.671295 
	C353.671021,288.486938 351.822235,288.239624 349.403320,288.750427 
	C346.160858,288.296844 343.856781,286.571960 341.392273,285.277222 
	C335.001312,281.919739 328.243439,279.911011 321.086823,279.192230 
	C319.245544,279.007233 317.482300,278.688110 315.668396,277.225616 
	C314.456329,275.648804 313.148346,275.061249 311.695221,274.531860 
	C275.453156,261.328156 238.242569,251.934525 200.044083,246.658798 
	C181.606293,244.112274 163.038605,242.955353 144.419342,242.054565 
	C129.748932,241.344833 115.154961,241.928009 100.597343,242.581345 
	C77.516739,243.617233 54.570084,246.546997 31.842510,250.951691 
	C28.406652,251.617584 24.757359,253.508606 21.099915,250.343262 
z"/>
<path fill="#9D35FF" opacity="1.000000" stroke="none" 
	d="
M9.163708,294.305908 
	C9.846559,285.305786 12.514063,277.050323 14.986535,268.354095 
	C17.436941,265.587982 20.363754,264.531586 23.523052,263.913635 
	C46.065693,259.504150 68.736572,256.221344 91.672058,254.435028 
	C103.294991,253.529800 114.970085,253.178253 126.531204,253.065460 
	C143.592957,252.899002 160.729919,253.744965 177.802521,255.415344 
	C206.365326,258.209900 234.469711,263.274048 262.196930,270.578857 
	C269.440765,272.487274 276.584381,274.739136 283.743164,276.933746 
	C286.096191,277.655090 288.631287,278.277405 289.963745,281.280701 
	C290.409912,283.923706 289.329071,285.467285 287.600128,286.670776 
	C282.207825,290.424316 276.777802,294.115295 272.780334,299.503387 
	C271.890198,300.703186 270.441101,301.283661 268.449127,301.292053 
	C258.297272,299.729980 249.006927,296.414093 239.419891,294.265076 
	C215.660034,288.939178 191.727737,284.982941 167.424927,283.151215 
	C151.978104,281.986969 136.537338,280.879242 121.049744,281.355774 
	C87.197334,282.397461 53.660137,286.091125 20.624599,293.814545 
	C16.975941,294.667542 13.320921,296.420715 9.163708,294.305908 
z"/>
<path fill="#DB46B0" opacity="1.000000" stroke="none" 
	d="
M569.457947,278.457520 
	C566.811035,271.828766 560.736755,268.890594 556.040405,264.919739 
	C533.405640,245.781555 509.685394,228.043579 484.645508,212.143951 
	C468.766144,202.061005 452.503021,192.647324 435.864288,183.824524 
	C404.004059,166.930466 370.929504,152.935150 336.786682,141.494919 
	C298.499939,128.666168 259.263153,119.616005 219.252945,114.235397 
	C197.697403,111.336586 176.028412,109.514999 154.235352,108.741364 
	C142.092636,108.310295 129.958328,108.332176 117.824631,107.988998 
	C116.202461,107.943115 114.421684,108.307945 113.126053,106.243027 
	C116.854202,101.743706 120.380066,97.214073 125.633842,94.032700 
	C130.847214,92.543556 135.769974,92.342522 140.754044,93.421303 
	C142.714050,93.845543 144.735535,93.731850 146.732529,93.717781 
	C175.252945,93.516899 203.487625,96.762009 231.612656,101.025017 
	C271.529419,107.075325 310.576599,116.774406 348.739380,129.942642 
	C373.144958,138.363907 396.915222,148.327209 420.248352,159.411560 
	C452.352142,174.662354 482.972107,192.438477 512.142029,212.677856 
	C533.604004,227.569168 554.435730,243.320984 573.774719,260.952789 
	C576.226562,263.188110 579.137573,264.918915 581.328613,268.014038 
	C581.001831,273.160645 575.570862,277.926361 569.457947,278.457520 
z"/>
<path fill="#B239E7" opacity="1.000000" stroke="none" 
	d="
M30.392527,225.342529 
	C31.400656,220.581665 33.598621,216.606125 36.009968,212.329254 
	C38.560734,209.539139 41.786320,209.262299 44.891182,208.786301 
	C61.170490,206.290604 77.536896,204.727066 93.970779,203.538223 
	C115.276405,201.996994 136.618423,202.112274 157.862335,203.021164 
	C188.453674,204.329987 218.784653,208.645889 248.748230,215.216415 
	C280.372955,222.151215 311.254120,231.542969 341.215881,243.775757 
	C384.089996,261.280396 424.342896,283.556946 461.812317,310.851898 
	C470.026764,316.835785 477.843964,323.299622 485.905304,329.462952 
	C488.150482,331.179474 490.195038,333.159210 491.787933,336.054260 
	C491.065277,341.783813 487.298248,345.138702 480.850067,345.843414 
	C463.836121,332.622620 446.959259,319.908508 429.259766,308.284821 
	C396.825867,286.984711 362.449829,269.508667 326.306183,255.487305 
	C284.644714,239.325409 241.607193,228.606583 197.256973,223.091339 
	C179.575089,220.892487 161.809387,220.124847 144.054123,218.935883 
	C128.494553,217.893936 113.090248,219.039658 97.680595,219.623215 
	C77.253822,220.396744 56.904404,223.009064 36.724834,226.542068 
	C34.549412,226.922943 32.448257,227.461090 30.392527,225.342529 
z"/>
<path fill="#C43FCE" opacity="1.000000" stroke="none" 
	d="
M68.015968,157.317474 
	C90.387276,155.718933 112.587303,153.596664 134.866211,154.051163 
	C191.482025,155.206207 247.126297,162.993958 301.546234,178.992737 
	C342.428497,191.011627 381.680725,207.049698 419.184845,227.195480 
	C452.370880,245.021774 483.781342,265.647797 513.021545,289.483246 
	C519.448669,294.722351 526.233948,299.544800 531.966614,306.094360 
	C531.146118,311.094025 528.508606,313.307526 522.638184,313.936798 
	C513.722290,307.978333 506.114838,300.978363 498.002808,294.614380 
	C477.135376,278.243744 455.266754,263.362274 432.419495,249.918503 
	C406.395203,234.605286 379.346161,221.334610 351.243835,210.306641 
	C310.030975,194.133774 267.684052,181.965149 223.858414,175.223007 
	C198.845306,171.374969 173.714417,169.211914 148.413956,167.905396 
	C130.371902,166.973694 112.487007,168.222778 94.543152,168.507965 
	C85.616089,168.649841 76.620308,169.545731 67.719505,170.787689 
	C65.165321,171.144089 62.688015,171.377380 60.973446,168.356537 
	C62.531708,164.056778 64.837097,160.600540 68.015968,157.317474 
z"/>
<path fill="#D143BE" opacity="1.000000" stroke="none" 
	d="
M97.644218,121.027321 
	C102.753433,123.046478 107.803421,122.134270 112.683693,121.697182 
	C123.659462,120.714180 134.576385,120.635300 145.545273,121.772530 
	C153.811005,122.629501 162.143524,122.271210 170.458099,122.782082 
	C194.229950,124.242691 217.765686,127.343491 241.198227,131.337769 
	C272.943878,136.749115 304.032440,144.902603 334.553772,155.092407 
	C359.843567,163.535599 384.450958,173.717712 408.540833,185.204422 
	C450.660736,205.288391 489.842987,230.060303 526.709106,258.549530 
	C537.749390,267.081177 548.331970,276.205292 559.470703,285.243042 
	C559.382751,290.544861 555.501587,292.010773 551.052856,293.287292 
	C544.690552,291.339233 540.768799,286.549896 536.222900,282.752228 
	C505.620148,257.186279 472.986359,234.623230 438.190918,215.124023 
	C402.801178,195.291733 365.890411,178.932251 327.404266,166.194138 
	C288.916962,153.455658 249.495209,144.569778 209.277328,139.533279 
	C190.327347,137.160187 171.285507,135.607941 152.139954,135.018356 
	C140.837601,134.670303 129.534988,134.228622 118.234070,134.357468 
	C109.932533,134.452103 101.657265,135.741409 93.325104,135.241623 
	C91.211395,135.114838 88.925507,135.547150 87.062805,133.323944 
	C89.962379,128.669464 93.480148,124.767311 97.644218,121.027321 
z"/>
<path fill="#DF48AB" opacity="1.000000" stroke="none" 
	d="
M581.587646,269.267639 
	C574.477661,266.157196 569.903076,260.447510 564.522278,255.859039 
	C540.430420,235.314514 514.900146,216.763062 488.291321,199.652710 
	C469.942261,187.853653 450.940399,177.149994 431.472748,167.376465 
	C408.425079,155.805588 384.764954,145.530579 360.515167,136.660263 
	C324.485291,123.480919 287.627075,113.352631 249.884155,106.496864 
	C228.474213,102.607864 206.948120,99.626122 185.231766,97.862663 
	C171.304184,96.731682 157.405350,95.914177 143.431580,95.905144 
	C137.831406,95.901527 132.231873,94.909897 126.291351,94.129860 
	C128.981918,89.767265 133.299850,87.147659 137.633209,84.033089 
	C142.524902,82.580025 147.068451,82.932106 151.768494,83.463135 
	C159.523407,84.339294 167.365173,83.981880 175.185486,84.528908 
	C206.438873,86.715057 237.358139,90.986313 268.049194,97.262505 
	C317.542145,107.383598 365.192108,123.060593 411.167633,143.912613 
	C450.397980,161.705353 487.764130,182.753265 522.922974,207.703217 
	C544.934082,223.323059 566.270325,239.756729 586.048157,258.159576 
	C587.529236,259.537689 589.128235,260.740845 589.333374,263.373962 
	C588.255859,267.457886 586.018433,269.640198 581.587646,269.267639 
z"/>
<path fill="#A434FA" opacity="1.000000" stroke="none" 
	d="
M289.294128,283.279205 
	C287.955353,279.829315 284.908752,279.803619 282.498962,279.050598 
	C256.756989,271.006744 230.581436,264.813904 203.867462,260.993317 
	C182.989471,258.007385 162.022964,256.550873 140.929779,255.658844 
	C127.100594,255.074020 113.348740,255.675873 99.671761,256.304474 
	C72.648849,257.546448 45.820576,261.286530 19.390602,267.380310 
	C18.261667,267.640594 17.105785,267.783997 15.563236,267.991333 
	C15.937760,261.850464 18.835640,256.308685 20.552998,250.148361 
	C30.579552,249.660370 39.866802,246.720078 49.445923,245.530594 
	C63.624512,243.769989 77.789894,242.087189 92.025604,240.769684 
	C102.982857,239.755569 113.964844,239.808517 124.889343,239.353516 
	C137.926422,238.810501 151.105362,239.907364 164.214752,240.787506 
	C179.656799,241.824249 194.978546,243.539902 210.270508,245.870132 
	C234.847488,249.615234 259.000519,255.143616 282.743561,262.452637 
	C292.290009,265.391418 301.720093,268.711243 311.180420,271.924561 
	C313.346497,272.660309 315.753082,273.166656 316.915344,275.983032 
	C316.010559,278.391113 314.166779,279.046570 312.099213,279.103607 
	C305.864929,279.275604 300.057770,281.147400 294.346436,283.423920 
	C292.763611,284.054810 291.209381,284.518616 289.294128,283.279205 
z"/>
<path fill="#9639FF" opacity="1.000000" stroke="none" 
	d="
M8.538347,294.170105 
	C33.332542,288.081329 58.034508,283.498505 83.072258,281.208832 
	C103.277725,279.361053 123.581955,278.136932 143.881348,279.076599 
	C183.702972,280.920013 222.990646,286.465637 261.421936,297.362671 
	C263.822510,298.043304 266.154938,298.964203 268.870483,299.924133 
	C269.527588,300.469452 269.888824,300.875275 269.883881,301.383484 
	C269.842468,305.655701 263.352570,314.699280 258.684723,316.465240 
	C256.399536,316.959381 254.640396,316.505646 252.864227,315.999908 
	C223.769745,307.715515 194.011215,303.128937 163.943939,300.545410 
	C146.521835,299.048370 128.998322,298.586731 111.539200,299.482330 
	C78.902596,301.156433 46.566875,305.236938 14.845368,313.456360 
	C11.927094,314.212524 8.845387,316.000702 5.476618,313.318848 
	C6.176029,306.792053 7.185411,300.585632 8.538347,294.170105 
z"/>
<path fill="#E249A6" opacity="1.000000" stroke="none" 
	d="
M588.321045,264.154572 
	C585.890747,259.818359 582.016235,257.309753 578.723206,254.438232 
	C553.748535,232.660767 527.378113,212.708252 499.545898,194.694504 
	C466.485718,173.297028 431.750122,155.099716 395.545532,139.636475 
	C361.324951,125.020607 326.166656,113.219093 289.992889,104.559975 
	C262.816864,98.054688 235.391495,92.812027 207.551987,89.907913 
	C189.381729,88.012451 171.243896,85.927292 152.929321,85.907982 
	C148.160919,85.902954 143.393555,84.906662 138.288239,84.128571 
	C141.121201,80.170113 145.415726,77.875870 149.600922,74.941177 
	C151.298843,77.155968 153.536621,76.947548 155.707367,77.003639 
	C211.705917,78.450417 266.443573,87.858627 320.210907,103.245560 
	C357.574768,113.938225 393.689453,127.864883 428.713470,144.768799 
	C475.359894,167.282135 519.044312,194.400818 559.442200,226.828598 
	C570.717346,235.879303 581.936157,244.983398 592.424011,254.949188 
	C593.737000,256.196869 595.229004,257.343872 595.916992,259.502930 
	C594.886719,263.497589 592.161438,264.563934 588.321045,264.154572 
z"/>
<path fill="#BB3CDA" opacity="1.000000" stroke="none" 
	d="
M45.071037,195.325775 
	C46.005386,191.566971 47.429207,188.334885 50.013355,185.321075 
	C53.115215,182.249802 57.010998,182.393219 60.547733,182.056473 
	C76.440109,180.543228 92.302620,178.553177 108.320526,178.677933 
	C115.971664,178.737534 123.564285,177.495789 131.253769,177.665619 
	C186.772003,178.891785 241.393112,186.042892 294.746674,201.872986 
	C329.489319,212.181213 363.183624,225.185257 395.460907,241.656326 
	C435.208618,261.939514 472.337463,286.277893 506.531067,315.008728 
	C508.799774,316.914948 511.257965,318.836639 511.401428,322.680725 
	C510.593964,326.530640 508.156525,328.016449 504.499268,328.521637 
	C497.047913,326.444885 492.435303,320.871155 487.028534,316.580475 
	C460.610535,295.615723 432.528381,277.239441 402.946350,261.065460 
	C371.123932,243.666534 337.825287,229.815399 303.310150,218.809769 
	C269.437866,208.009125 234.878433,200.350891 199.560074,196.126038 
	C181.714081,193.991257 163.788193,193.156570 145.875381,191.933624 
	C129.822647,190.837662 113.939224,192.107117 98.011620,192.521790 
	C82.915161,192.914810 67.833557,194.646484 52.839848,196.758713 
	C50.224670,197.127121 47.537304,197.809586 45.071037,195.325775 
z"/>
<path fill="#AF38EB" opacity="1.000000" stroke="none" 
	d="
M30.007500,225.329697 
	C40.365318,223.592316 50.545883,222.018631 60.770267,220.818176 
	C72.964775,219.386398 85.179047,217.524643 97.417618,217.234299 
	C109.720726,216.942429 121.986229,215.620956 134.306488,215.993637 
	C186.890839,217.584259 238.582932,224.689758 289.044434,240.100128 
	C323.569946,250.643829 356.694702,264.467773 388.545380,281.336334 
	C420.547913,298.285309 450.398346,318.537445 478.526611,341.336945 
	C479.588226,342.197388 480.532562,343.084106 480.966614,344.793823 
	C481.208588,349.441162 478.555511,350.690033 474.515320,350.639435 
	C469.800201,344.104462 463.079742,340.474884 457.208923,335.919952 
	C429.355591,314.309814 399.426666,295.945679 367.792786,280.477997 
	C319.764954,256.994324 269.321289,240.745667 216.514038,232.279984 
	C193.055328,228.519257 169.388351,226.731628 145.596039,225.617035 
	C129.395630,224.858093 113.328789,225.695206 97.266342,226.261292 
	C76.537979,226.991806 55.876503,229.578079 35.432392,233.404831 
	C32.794090,233.898682 30.201826,234.470123 27.269421,233.115906 
	C27.698174,230.387009 28.227047,227.802734 30.007500,225.329697 
z"/>
<path fill="#BF3DD6" opacity="1.000000" stroke="none" 
	d="
M510.436768,323.299225 
	C508.310638,317.534546 503.075104,315.155121 499.069824,311.915558 
	C469.099060,287.674683 437.130676,266.460358 403.006561,248.411392 
	C345.946381,218.231033 285.536896,198.293198 221.907013,187.904526 
	C204.026123,184.985153 186.058304,182.905594 167.946777,181.877731 
	C153.341888,181.048859 138.726532,179.549133 124.123940,180.135971 
	C102.231247,181.015762 80.283669,181.528519 58.541763,184.771820 
	C56.090412,185.137497 53.554779,184.938141 50.612373,185.001099 
	C51.862396,182.080734 53.558270,179.160095 55.569695,176.098618 
	C57.455845,174.625580 59.238247,173.948914 61.321594,173.738892 
	C76.541199,172.204681 91.750023,170.689301 107.080414,170.616180 
	C112.878960,170.588547 118.653946,169.602615 124.500916,169.678101 
	C153.284851,170.049759 181.960236,171.696518 210.526550,175.489807 
	C248.944824,180.591324 286.438110,189.525482 323.068085,202.044266 
	C360.511475,214.841064 396.196198,231.537888 430.420380,251.394455 
	C456.968658,266.797546 482.031494,284.342926 505.954987,303.529663 
	C510.225616,306.954742 514.587463,310.337311 518.438477,314.867889 
	C518.479675,320.117340 516.633484,322.059601 510.436768,323.299225 
z"/>
<path fill="#CE42C1" opacity="1.000000" stroke="none" 
	d="
M86.574081,133.094162 
	C96.859543,133.094238 106.819199,132.335266 116.771454,132.157227 
	C146.355209,131.628006 175.839355,133.416382 205.266724,136.816620 
	C246.737091,141.608353 287.210205,150.734558 326.876923,163.512741 
	C359.411377,173.993347 390.767426,187.421463 421.113922,203.113419 
	C461.584198,224.040329 499.277313,249.235672 534.506775,278.114807 
	C539.900574,282.536285 545.144165,287.140961 550.743774,291.834839 
	C550.562805,296.513702 548.792908,298.077942 543.380371,298.265839 
	C542.646057,295.530609 540.722717,294.036407 538.977112,292.560303 
	C506.244019,264.880463 471.387054,240.299728 433.921722,219.346146 
	C400.093292,200.426590 364.782776,184.964355 328.118805,172.630966 
	C290.334747,159.920776 251.617462,151.012909 212.048203,145.868088 
	C191.608963,143.210556 171.135040,141.457382 150.514694,140.790558 
	C141.217896,140.489960 131.907913,139.820587 122.610954,140.077087 
	C110.998337,140.397491 99.403107,141.316681 87.795311,141.871689 
	C85.579224,141.977646 83.087624,142.841644 81.119347,140.240723 
	C82.727036,137.667633 84.496048,135.447906 86.574081,133.094162 
z"/>
<path fill="#B83BDF" opacity="1.000000" stroke="none" 
	d="
M44.573204,195.118622 
	C56.117237,193.839859 67.375496,192.909973 78.577164,191.522949 
	C84.526871,190.786224 90.561806,190.347473 96.448662,190.269196 
	C108.104561,190.114182 119.695419,188.662750 131.357132,188.986435 
	C174.327927,190.179092 216.915405,194.316116 258.890015,204.133087 
	C306.502441,215.268646 352.119080,231.767014 395.468628,254.319855 
	C430.112366,272.343445 462.745972,293.544647 492.945770,318.394196 
	C496.536804,321.349030 500.289215,324.107758 504.301971,327.135986 
	C504.142548,331.715942 501.187347,333.396423 496.841125,333.915405 
	C487.193512,327.578522 478.899292,320.095673 469.949097,313.461761 
	C447.049591,296.488678 423.112274,281.185516 398.052551,267.564026 
	C367.524872,250.970367 335.653046,237.612213 302.639404,226.949234 
	C269.142914,216.130280 234.907318,208.514755 199.956268,204.206223 
	C181.964279,201.988297 163.874283,201.150772 145.800232,199.930191 
	C129.587555,198.835312 113.534637,200.005478 97.460510,200.564911 
	C80.549477,201.153503 63.640289,202.946121 46.893124,205.740753 
	C44.584377,206.126007 42.251499,206.581665 40.104256,204.328445 
	C40.380726,200.579178 42.990200,198.263062 44.573204,195.118622 
z"/>
<path fill="#B63AE2" opacity="1.000000" stroke="none" 
	d="
M39.600044,204.133148 
	C49.147179,202.910751 58.378479,201.788940 67.625534,200.817047 
	C77.198914,199.810898 86.783791,198.253326 96.370522,198.201080 
	C108.529747,198.134827 120.612549,196.605209 132.775116,196.980759 
	C173.727951,198.245239 214.346573,202.158966 254.387878,211.286804 
	C302.218231,222.190231 347.998932,238.697174 391.505493,261.321075 
	C426.154449,279.338928 458.729126,300.607330 488.954468,325.404419 
	C491.654449,327.619507 494.591309,329.556335 496.833649,332.740784 
	C497.536560,336.777039 495.283081,337.633698 491.863342,337.440186 
	C473.646820,322.010345 454.778259,308.129425 435.060638,295.395630 
	C386.183746,263.830627 333.764771,240.232742 277.607452,224.852615 
	C249.470093,217.146484 220.915710,211.794373 192.017365,208.129623 
	C161.898148,204.310059 131.594193,204.196808 101.364281,205.263260 
	C81.504509,205.963882 61.620750,208.000320 42.000584,211.710098 
	C40.382153,212.016113 38.686481,211.913620 36.596802,212.001434 
	C36.163624,209.010727 38.548275,206.988144 39.600044,204.133148 
z"/>
<path fill="#923CFF" opacity="1.000000" stroke="none" 
	d="
M5.093890,313.420227 
	C16.204933,310.561951 27.184435,307.806824 38.294079,305.757050 
	C59.695320,301.808441 81.219666,298.978882 103.012177,297.771240 
	C115.665169,297.070038 128.294785,296.797852 140.904160,297.113281 
	C171.859100,297.887482 202.513016,301.590149 232.734192,308.462524 
	C241.325226,310.416199 249.818970,312.797699 258.757507,315.018188 
	C260.585419,319.610535 257.446503,325.571960 251.809113,328.208252 
	C235.767059,322.849640 219.568893,319.867950 203.352966,317.073090 
	C173.130386,311.864136 142.617569,309.896515 112.017365,311.128906 
	C77.408829,312.522736 43.259048,317.564575 9.817007,326.879303 
	C7.913029,327.409607 5.923451,327.632568 3.569372,328.000977 
	C3.783736,323.282898 4.402436,318.562439 5.093890,313.420227 
z"/>
<path fill="#C23ED2" opacity="1.000000" stroke="none" 
	d="
M519.245117,316.646118 
	C512.403625,313.562836 507.881073,308.042511 502.454498,303.735748 
	C477.510956,283.939667 451.345612,266.009094 423.649445,250.271545 
	C388.361298,230.220093 351.538971,213.638931 312.915894,201.185974 
	C279.282104,190.341660 244.989105,182.295502 209.877029,177.833221 
	C189.596375,175.255798 169.305161,173.381195 148.843491,172.758957 
	C139.883774,172.486511 130.883163,171.672485 121.943275,172.109161 
	C103.049118,173.032074 84.090668,173.131622 65.301460,175.801468 
	C62.521999,176.196411 59.649128,175.933945 56.352364,175.966705 
	C56.334709,172.814224 58.773758,170.796631 60.569969,168.097656 
	C65.825684,170.052353 70.722069,167.768723 75.633347,167.675446 
	C83.421326,167.527557 91.191505,166.157654 98.974602,166.105255 
	C110.129578,166.030167 121.207809,164.508392 132.388809,164.951477 
	C158.126022,165.971390 183.804672,167.313873 209.388748,170.701569 
	C251.339066,176.256363 292.138336,186.338104 331.938934,200.523727 
	C365.890015,212.624542 398.477997,227.676086 429.745789,245.701416 
	C458.826904,262.466187 486.128876,281.698029 512.097046,302.875580 
	C515.800964,305.896240 519.989075,308.507507 522.905640,312.924408 
	C523.426697,315.897827 522.061646,316.891663 519.245117,316.646118 
z"/>
<path fill="#6D54FF" opacity="1.000000" stroke="none" 
	d="
M4.094678,426.420441 
	C17.506824,422.501892 30.401608,417.481506 43.899292,414.508331 
	C61.746651,410.577118 79.662308,407.239197 97.937302,405.886963 
	C108.855637,405.079041 119.786186,403.832123 130.704651,404.121582 
	C151.765762,404.679901 172.774048,406.311798 193.531647,410.212341 
	C194.957413,410.480255 196.279755,411.298553 197.929565,412.143677 
	C199.657837,414.377350 198.809555,416.115631 197.759308,417.880890 
	C193.641846,424.801575 189.142258,431.480774 184.868729,438.302826 
	C183.724747,440.128998 182.312744,441.780487 179.441162,441.705383 
	C158.968994,438.458984 138.769867,436.422119 118.466309,437.472900 
	C84.764977,439.217041 51.774120,445.044373 19.858240,456.358154 
	C16.696980,457.478729 13.465737,459.610352 9.503105,457.237732 
	C7.437489,446.943512 5.730040,436.893097 4.094678,426.420441 
z"/>
<path fill="#6459FF" opacity="1.000000" stroke="none" 
	d="
M9.196908,457.378906 
	C21.144852,454.211670 32.439240,449.137817 44.434673,446.284821 
	C61.734531,442.170258 79.092781,438.603577 96.836105,436.893524 
	C110.406433,435.585693 123.983192,434.421143 137.589279,435.098755 
	C149.665955,435.700195 161.708145,437.068848 173.746933,438.283356 
	C175.791336,438.489624 178.121658,438.676880 179.853348,440.879700 
	C180.142044,441.338074 180.285522,441.482513 180.288254,441.629608 
	C180.397430,447.495392 169.218842,465.182739 163.574829,467.473083 
	C159.193604,468.578827 155.254623,467.626129 151.284225,467.490509 
	C118.598747,466.373749 86.072762,467.361633 54.233582,475.967529 
	C44.273827,478.659546 34.415966,481.693970 24.730133,485.268982 
	C22.421793,486.120972 20.089693,487.364899 17.279972,485.362976 
	C13.351194,476.267700 12.191487,466.765167 9.196908,457.378906 
z"/>
<path fill="#5861FF" opacity="1.000000" stroke="none" 
	d="
M16.961338,485.480377 
	C26.431652,482.067596 35.904644,478.956543 45.437878,476.042572 
	C63.144863,470.630188 81.296928,467.688843 99.714058,465.886658 
	C116.671982,464.227234 133.625443,465.407593 150.576050,465.075684 
	C154.866409,464.991638 159.172897,465.731293 163.951294,466.122162 
	C165.274933,467.404785 165.150146,468.712738 164.407318,469.895599 
	C160.013321,476.892548 155.723404,483.937164 152.995636,491.803772 
	C152.844437,492.239777 152.299408,492.492554 151.516998,492.879517 
	C143.676407,493.433990 136.317535,491.779938 128.819839,491.930756 
	C93.657753,492.637939 59.617542,498.889404 26.515972,511.920685 
	C22.274780,503.583801 19.701719,494.703278 16.961338,485.480377 
z"/>
<path fill="#287FFF" opacity="1.000000" stroke="none" 
	d="
M126.130417,655.275024 
	C126.387054,655.219604 126.582008,655.455994 126.853317,655.921753 
	C126.673866,655.930664 126.386894,655.735840 126.130417,655.275024 
z"/>
<path fill="#FFFEFF" opacity="1.000000" stroke="none" 
	d="
M151.318695,493.330505 
	C152.317535,482.691681 158.821869,475.038452 164.299896,466.481079 
	C169.540863,458.032440 174.651123,449.913055 179.912781,441.493042 
	C186.054001,431.818848 192.043808,422.445312 198.121246,412.749115 
	C203.819702,403.647034 209.430481,394.867584 215.131317,385.766968 
	C219.853027,378.770599 224.414673,372.051727 228.150864,364.425476 
	C231.543732,361.629150 232.881546,357.743011 235.014816,354.460876 
	C240.519028,345.992462 245.794571,337.375366 251.289047,328.484985 
	C254.214188,324.180878 257.055481,320.236420 259.098022,315.408630 
	C263.430359,310.964325 265.552979,305.397217 269.109833,300.406982 
	C274.745789,293.478180 280.886688,287.599518 288.767029,283.229553 
	C297.661163,279.119141 306.616669,276.489624 316.607635,276.446655 
	C328.625275,277.241638 339.525635,280.297485 349.509216,287.210815 
	C358.190613,289.805359 364.412170,295.730377 371.128021,300.745239 
	C394.266571,318.023224 417.383209,335.331573 440.446564,352.710510 
	C446.020142,356.910339 452.149994,358.903595 459.151459,357.014435 
	C460.624115,356.617065 462.096405,356.475525 463.862671,357.325134 
	C468.042511,356.272797 470.386841,352.910980 473.912659,350.680359 
	C476.333038,348.865356 478.512360,347.279175 480.867798,345.415466 
	C484.389465,342.686798 487.735016,340.235626 491.297729,337.512360 
	C493.236206,336.020203 494.957489,334.800110 496.843231,333.303711 
	C499.393768,331.304260 501.779846,329.581055 504.401520,327.586243 
	C506.326599,326.100464 508.016083,324.886353 509.873383,323.402863 
	C512.793884,321.056427 515.546631,318.979370 518.601440,316.696228 
	C520.189880,315.575043 521.476257,314.659973 522.918945,313.486633 
	C526.449585,311.804718 528.581482,308.698151 531.900269,306.649048 
	C535.644775,303.822876 539.156677,301.231659 542.844910,298.359863 
	C545.574219,296.244720 548.127319,294.410187 550.855347,292.292236 
	C553.803040,289.989136 556.575806,287.969482 559.582886,285.688965 
	C562.789612,283.225250 565.762085,281.022430 568.913330,278.548248 
	C573.006042,275.400238 576.919861,272.523529 581.020691,269.360382 
	C583.346985,267.547821 585.486267,266.021667 587.806152,264.218262 
	C590.441162,262.664642 592.895630,261.388306 595.674866,259.968445 
	C609.032776,259.094025 616.344666,264.720520 618.799133,277.639282 
	C618.164001,280.796661 617.934021,283.746582 616.364136,286.668793 
	C614.508911,289.760803 612.750244,292.513580 610.899902,295.604065 
	C607.546082,300.974457 604.284058,306.007141 600.945679,311.367737 
	C598.227417,315.747803 595.585632,319.799927 592.845032,324.166656 
	C589.546997,329.428589 586.347656,334.375946 583.068726,339.659485 
	C580.269592,342.750244 578.808105,346.330902 576.607788,349.804260 
	C574.615662,352.985321 572.755249,355.875122 570.788391,359.072449 
	C568.004272,362.362946 566.233765,365.936829 564.119263,369.672607 
	C562.400208,372.446136 560.757202,374.883240 558.985168,377.637939 
	C557.261780,380.402527 555.667419,382.849548 553.950806,385.620422 
	C552.260742,388.351654 550.692932,390.759064 549.030884,393.486755 
	C546.908508,396.935181 544.880371,400.063324 542.727905,403.525208 
	C541.161743,406.025696 539.719971,408.192474 538.203857,410.682922 
	C535.451538,415.103699 532.773621,419.200867 529.971008,423.622925 
	C527.607300,427.404358 525.368225,430.860870 522.999207,434.639069 
	C517.929871,442.735992 512.990479,450.511230 507.970306,458.627106 
	C505.523193,462.505890 503.156860,466.044006 500.642456,469.867218 
	C494.680664,477.384644 487.833557,483.366943 479.241699,487.769379 
	C470.901825,491.217316 462.594269,493.466614 453.399658,493.538177 
	C436.804321,493.003296 423.728363,485.457642 411.196411,475.821198 
	C384.727936,455.468079 357.825439,435.679749 331.134338,415.615387 
	C324.646423,410.738312 317.653534,408.611694 309.237396,411.114746 
	C302.233185,413.250885 297.607117,418.251404 292.059814,422.388245 
	C286.635284,426.553711 281.389099,430.447418 275.959351,434.630035 
	C270.268890,439.002991 264.761993,443.087067 259.081299,447.447327 
	C250.623352,453.908783 242.339233,460.094055 233.869995,466.569031 
	C225.536530,472.939636 217.388199,479.020508 209.056244,485.368225 
	C201.992340,490.779449 195.112030,495.923798 188.043610,501.330505 
	C185.967163,502.925812 184.054321,504.225525 182.194458,505.597046 
	C169.153870,515.213989 154.648895,509.582245 151.318695,493.330505 
z"/>
<path fill="#A434FA" opacity="1.000000" stroke="none" 
	d="
M464.019440,357.137115 
	C455.128815,361.960602 446.815704,360.303741 438.984711,354.427795 
	C409.403412,332.231842 379.812042,310.049377 350.032562,287.597687 
	C352.045776,285.531464 354.014130,287.119446 355.826904,287.983582 
	C392.397369,305.417023 426.744415,326.435760 458.381134,351.804626 
	C460.314453,353.354950 462.588135,354.525482 464.019440,357.137115 
z"/>
</svg>